<?xml version="1.0" encoding="utf-8"?>
<!-- Generator: Adobe Illustrator 23.0.3, SVG Export Plug-In . SVG Version: 6.00 Build 0)  -->
<svg version="1.1" id="Layer_1" xmlns="http://www.w3.org/2000/svg" xmlns:xlink="http://www.w3.org/1999/xlink" x="0px" y="0px"
	 viewBox="0 0 454.67 311.24" style="enable-background:new 0 0 454.67 311.24;" xml:space="preserve">
<style type="text/css">
	.st0{fill:#FFFFFF;}
	.st1{fill:none;}
	.st2{fill:#BE1E2D;}
	.st3{fill:#F5F5F5;}
	.st4{fill:none;stroke:#000000;stroke-miterlimit:10;}
</style>
<g>
	<path class="st2" d="M32.39,109.64c-1.43,1.43-2.71,3.05-4.31,4.24c-2.87,2.13-6.14,3.38-9.81,2.96c-4.48-0.51-7.9-2.65-10.27-6.59
		c-0.63-1.04-1.92-1.69-2.92-2.53c1.88,0,3.89,0.1,5.89-0.02c5.48-0.32,9.14-3.59,12.48-7.56c1.01-1.2,2.7-1.83,4.09-2.71
		c0.45-0.29,0.93-0.53,1.39-0.8c-0.42-0.45-0.77-1.14-1.28-1.32c-4.32-1.51-7.75-4.22-10.68-7.66c-3.33-3.92-3-11.68,0.9-15.94
		c1.71,7.16,5.69,12.13,12.92,13.97c3.44,0.88,6.66-0.08,9.56-0.99c-1.36-2.3-2.91-4.36-3.77-6.67c-0.33-0.89,0.93-2.37,1.53-3.72
		c0.69,0.55,1.25,0.79,1.5,1.21c3.18,5.38,8.22,4.97,13.24,4.08c4.01-0.71,8-1.89,12.02-0.59c1.86,0.6,4.01,1.48,5.14,2.92
		c2.21,2.82,3.8,6.13,5.65,9.23c0.21,0.35,0.43,0.7,1.04,1.67c1.24-1.43,2.66-2.46,3.22-3.83c1.76-4.32,3.49-8.69,4.7-13.19
		c1.63-6.08,2-12.26,0.75-18.58c-1.04-5.28-2.27-10.36-5.29-14.9c-4.34-6.53-10.19-10.15-18.22-9.82c-4.5,0.18-7.63,2.39-9.62,6.33
		c-0.76,1.5-1.44,3.03-2.34,4.95c2.33-0.73,4.2-1.37,6.1-1.9c2.56-0.71,5.97,1.06,7.52,4.05c1.7,3.28,1.5,6.57,0.15,10.03
		c-1.58,4.07-4.15,6.78-8.38,7.93c-4.53,1.24-8.8,0.11-12.73-1.86c-5.6-2.81-9.38-7.36-10.36-13.73c-0.27-1.79-0.15-3.79,0.38-5.51
		c0.89-2.92,1.97-5.86,3.51-8.48c1.13-1.93,0.29-2.54-1.04-3.34c-5.92-3.56-8.85-8.86-8.88-15.7c-0.02-4.1,2.28-7.19,6.38-8.77
		c-1.4,6.03,0.72,11.21,5.34,14.43c4.52,3.15,9.84,5.52,15.81,4.8c6.69-0.81,13.38-1.62,20.07-2.42c7.34-0.88,13.84,1.22,19.19,6.18
		c4.38,4.05,7.19,9.23,9.24,14.86c2.34,6.44,3.16,13.11,2.48,19.81c-0.48,4.75-2,9.41-3.22,14.07c-1.53,5.81-3.11,11.61-4.9,17.34
		c-2.25,7.19-4.74,14.3-7.1,21.46c-1.36,4.13-2.6,8.3-4,12.41c-1.5,4.41-3.35,8.7-4.65,13.17c-1.07,3.67-1.71,7.48-2.25,11.28
		c-0.62,4.35-1.16,8.73-1.29,13.12c-0.25,9.06-0.01,18.2,4.41,26.4c2.92,5.42,6.44,10.61,11.63,14.29
		c4.86,3.44,9.61,7.08,14.69,10.18c5.21,3.17,11.18,4.41,17.16,5.39c7.42,1.21,14.8,2.65,22.24,3.66c3.7,0.5,7.5,0.13,11.24,0.35
		c6.65,0.4,12.96-1.42,19.29-2.94c9.75-2.33,19.5-4.67,29.14-7.38c4.16-1.17,8.06-3.25,12.08-4.92c4.32-1.79,8.67-3.52,12.96-5.39
		c4.37-1.91,8.8-3.72,12.97-6.01c6.26-3.43,12.39-7.12,18.44-10.91c4.73-2.96,9.44-6.03,13.83-9.46c3.47-2.71,6.45-6.06,9.65-9.11
		c3.59-3.42,7.51-6.56,10.73-10.3c6.78-7.89,13.34-15.98,19.69-24.21c4.15-5.38,7.57-11.32,11.68-16.73
		c3.63-4.77,7.64-9.27,11.7-13.68c3.77-4.1,7.78-7.99,11.81-11.84c1.7-1.63,3.78-2.84,5.56-4.39c5.47-4.78,11.63-8.5,17.9-12.12
		c7.62-4.41,15.55-7.73,24.46-8.23c2.91-0.16,5.82-0.39,8.74-0.48c0.74-0.02,1.5,0.38,2.2,0.71c-8.6,0.1-16.49,2.85-24.26,5.97
		c-4.93,1.98-10,3.8-14.56,6.46c-4.8,2.8-9.24,6.31-13.51,9.91c-4.15,3.51-8.04,7.36-11.74,11.35c-3.6,3.87-6.93,8.02-10.19,12.19
		c-3.28,4.19-6.39,8.51-9.46,12.85c-3.84,5.44-7.47,11.03-11.35,16.44c-2.54,3.54-5.38,6.86-8.05,10.31
		c-1.83,2.37-3.51,4.87-5.4,7.18c-2.37,2.9-4.79,5.78-7.38,8.48c-2.77,2.88-5.54,5.85-8.71,8.23c-5.1,3.84-10.47,7.36-15.86,10.8
		c-7.2,4.59-14.36,9.31-21.87,13.35c-9.72,5.22-19.67,10.06-29.74,14.6c-6.27,2.82-12.83,5.11-19.44,7
		c-6.44,1.84-13.06,3.16-19.68,4.19c-6.7,1.04-13.49,1.77-20.27,2.03c-6.85,0.26-13.75,0.06-20.59-0.48
		c-5.65-0.45-11.28-1.51-16.84-2.64c-4.94-1-9.87-2.22-14.63-3.84c-3.55-1.21-7.09-2.67-9.74-5.73c-1.46-1.68-3.58-2.76-5.3-4.23
		c-9.37-8.03-14.59-18.5-17.43-30.28c-0.68-2.8-0.69-5.76-1.05-8.64c-0.1-0.77-0.35-1.53-0.87-2.22c-0.24,3.62-0.85,7.27-0.62,10.87
		c0.19,3.09,1.2,6.17,2.07,9.18c0.83,2.87,1.47,5.96,3.02,8.43c2.93,4.64,6.25,9.07,9.78,13.29c8.53,10.19,20.56,13.37,32.88,15.77
		c6.98,1.36,13.97,2.71,21,3.7c3.25,0.46,6.63,0.17,9.94,0.01c4.59-0.22,9.19-0.48,13.75-1.01c5.8-0.68,11.58-1.56,17.34-2.53
		c4.27-0.72,8.54-1.56,12.72-2.67c4.92-1.3,9.8-2.82,14.61-4.48c5.95-2.06,12.06-3.88,17.67-6.67c9.37-4.66,18.4-10.02,27.58-15.08
		c5.78-3.18,11.61-6.25,17.32-9.55c2.81-1.63,5.5-3.52,8.05-5.53c5.04-3.98,10.46-7.67,14.8-12.33c6.17-6.61,12.42-13.22,17.2-21.06
		c3.15-5.15,7.44-9.62,10.41-14.86c4.12-7.27,9.13-13.76,14.64-19.98c5.13-5.79,9.9-11.92,15.16-17.58
		c5.89-6.33,11.9-12.65,20.03-16.23c7.05-3.11,14.13-6.14,21.27-9.02c3.31-1.33,6.75-2.78,10.24-3.17
		c5.88-0.65,11.92-1.9,17.07,0.35c-5.03,0.8-10.63,1.66-16.22,2.59c-7.86,1.32-15.02,4.47-21.84,8.49
		c-7.89,4.64-15.73,9.36-22.5,15.59c-2.62,2.41-5.06,5.01-7.59,7.52c-1.14,1.13-2.42,2.15-3.42,3.39
		c-4.7,5.88-9.4,11.76-13.95,17.75c-3.55,4.67-6.94,9.47-10.32,14.28c-1.18,1.68-2.04,3.59-3.14,5.33
		c-1.69,2.68-3.37,5.36-5.21,7.93c-2.29,3.2-4.58,6.43-7.16,9.4c-3.1,3.57-6.4,6.98-9.8,10.28c-4.06,3.94-8.29,7.71-12.5,11.49
		c-6.05,5.43-12.17,10.74-19.2,14.96c-6.85,4.11-13.19,9.11-20.2,12.9c-9.63,5.21-19.51,10.03-29.58,14.32
		c-9.26,3.94-18.81,7.39-28.88,8.69c-9.65,1.25-19.34,2.32-29.04,2.9c-8.22,0.49-16.53,0.63-24.73,0.05
		c-8.51-0.6-16.71-3.18-24.75-6.08c-3.57-1.29-7.32-2.19-10.73-3.81c-3.7-1.76-7.41-3.78-10.53-6.38c-3.91-3.26-7.65-6.93-10.69-11
		c-2.61-3.51-4.42-7.73-6.04-11.84c-1.32-3.35-2.14-6.96-2.63-10.54c-0.51-3.71-0.5-7.52-0.48-11.28c0.02-3.88,0.52-7.76,0.45-11.63
		c-0.14-7.95,1.77-15.55,3.39-23.22c0.72-3.39,1.16-6.85,1.9-10.24c0.48-2.2,1.25-4.33,1.88-6.49c0.22-0.77,0.4-1.55,0.6-2.33
		c-0.21-0.08-0.41-0.16-0.62-0.23c-2.67,5.91-5.66,11.7-7.94,17.75c-3.7,9.8-6.74,19.84-10.44,29.64
		c-1.74,4.62-2.79,9.37-3.82,14.14c-0.54,2.51-0.67,5.11-0.94,7.67c-0.39,3.63-0.79,7.26-1.09,10.89
		c-0.89,10.89,0.11,21.62,4.9,31.5c3.29,6.78,6.9,13.73,11.83,19.31c6.77,7.65,14.73,14.34,23.85,19.32
		c6.41,3.49,12.72,7.23,19.38,10.16c4.41,1.94,9.31,2.84,14.06,3.89c4.77,1.05,9.6,1.9,14.46,2.45c3.81,0.43,7.68,0.31,11.53,0.32
		c5.55,0.02,11.09-0.02,16.64-0.11c5.35-0.09,10.74,0.05,16.05-0.49c5.43-0.55,10.82-1.68,16.19-2.78
		c4.43-0.91,8.84-2.02,13.19-3.28c7.8-2.26,15.34-5.19,22.49-9.09c3.32-1.81,6.74-3.43,10.12-5.13c7.47-3.76,14.81-7.72,21.51-12.81
		c6.84-5.19,13.88-10.13,20.69-15.35c2.32-1.77,4.17-4.14,6.34-6.13c3.2-2.94,6.68-5.61,9.7-8.72c6.63-6.84,13.26-13.71,19.49-20.92
		c5.98-6.92,11.65-14.12,17.08-21.48c4.23-5.73,7.94-11.84,11.75-17.86c3.5-5.54,6.85-11.17,10.25-16.78
		c2.54-4.19,4.93-8.48,7.6-12.59c2.94-4.53,6.34-8.76,9.13-13.37c3.25-5.37,7.82-9.48,12.73-12.95c4.72-3.33,10.13-5.9,15.56-7.94
		c4.75-1.79,9.92-2.64,14.98-3.43c5.67-0.89,11.28,0.26,16.46,2.54c2.43,1.07,4.44,3.32,4.85,6.25c-3.99-0.96-7.84-1.91-11.69-2.82
		c-5.29-1.25-10.61-1.21-15.85,0.17c-5.39,1.42-10.8,2.84-16.05,4.68c-4.38,1.54-8.23,4.17-11.42,7.62
		c-3.39,3.67-6.92,7.23-10.04,11.13c-2.23,2.79-3.91,6.04-5.79,9.11c-1.84,3-3.69,6-5.41,9.08c-3.33,5.99-6.47,12.08-9.88,18.02
		c-3,5.24-6.22,10.36-9.42,15.48c-2.46,3.95-4.95,7.9-7.59,11.73c-1.57,2.29-3.45,4.37-5.19,6.55c-1.97,2.48-3.88,5.02-5.93,7.43
		c-2.95,3.47-5.83,7.03-9.05,10.25c-8.49,8.51-17.04,16.96-25.78,25.21c-5.17,4.88-10.73,9.35-16.13,13.98
		c-2.2,1.89-4.34,3.87-6.7,5.52c-2.55,1.78-5.35,3.2-8.01,4.82c-6.3,3.85-12.39,8.08-18.91,11.5c-6.6,3.46-13.48,6.53-20.5,9.02
		c-5.31,1.88-11.04,2.54-16.56,3.82c-4.68,1.09-9.31,2.47-14.02,3.42c-3.23,0.65-6.57,0.7-9.85,1.14
		c-5.04,0.67-10.04,1.68-15.09,2.06c-3.33,0.25-6.72-0.39-10.09-0.55c-1.77-0.09-3.57,0.15-5.33-0.03
		c-7.44-0.78-14.9-1.51-22.31-2.55c-4.75-0.66-9.49-1.58-14.12-2.79c-8.3-2.17-16.29-5.27-23.86-9.33c-5-2.68-10.08-5.34-14.6-8.7
		c-4.25-3.16-8-7.06-11.63-10.94c-3.61-3.86-7.46-7.74-10.02-12.28c-3.15-5.61-5.49-11.79-7.4-17.96
		c-1.63-5.26-2.5-10.83-3.09-16.33c-0.7-6.53-0.96-13.13-0.97-19.71c0-3.14,1.03-6.28,1.58-9.42c0.05-0.28,0.01-0.58-0.61-0.98
		c-0.28,1.11-0.47,2.25-0.86,3.32c-2.07,5.69-2.34,11.67-2.29,17.57c0.04,5.29,1.02,10.57,1.52,15.87
		c0.79,8.3,4.09,15.85,7.13,23.43c2.18,5.43,5.23,10.41,9.71,14.48c3.69,3.35,6.73,7.42,10.43,10.76c3.54,3.19,7.6,5.8,11.36,8.75
		c7.08,5.53,15.77,7.5,23.87,10.72c5.83,2.31,11.98,3.95,18.11,5.33c5.3,1.19,10.75,1.88,16.17,2.27c7.58,0.55,15.19,0.64,22.79,0.9
		c3.46,0.12,6.93,0.39,10.37,0.16c3.18-0.22,6.31-1.06,9.48-1.54c3.4-0.52,6.82-0.86,10.21-1.41c2.3-0.38,4.57-0.97,6.85-1.48
		c8.03-1.81,16.13-3.36,24.05-5.55c4.42-1.22,8.55-3.48,12.78-5.35c3.33-1.48,6.68-2.92,9.86-4.67c4.68-2.57,9.32-5.26,13.79-8.17
		c5.36-3.5,10.68-7.1,15.76-10.99c6.18-4.73,12.12-9.79,18.12-14.76c3.51-2.9,7.1-5.73,10.37-8.87c4.7-4.52,9.39-9.09,13.63-14.02
		c6.67-7.74,13.1-15.7,19.36-23.77c3.85-4.96,7.47-10.14,10.72-15.5c8.2-13.51,15.97-27.27,24.23-40.74
		c4.33-7.07,8.89-14.1,14.13-20.5c6.01-7.33,14.35-11.24,23.74-12.56c5.13-0.72,10.3-1.28,15.47-1.47
		c4.83-0.18,9.43,1.37,13.76,3.44c3.87,1.85,6.42,8.13,5.48,12.74c-0.2,1-0.41,2-0.71,3.46c-0.76-1.31-1.3-2.37-1.96-3.35
		c-1.35-2.02-2.58-4.18-4.2-5.97c-4.54-5.03-10.47-5.93-16.88-5.44c-7.07,0.55-13.06,3.93-19.22,6.96
		c-7.35,3.61-12.2,9.86-17.26,15.92c-3.86,4.62-6.42,10-9.37,15.17c-3.4,5.95-7.52,11.48-11.21,17.27
		c-3.24,5.08-6.17,10.36-9.53,15.35c-3.71,5.5-7.67,10.83-11.67,16.12c-3.7,4.88-7.41,9.77-11.47,14.35
		c-6.87,7.78-13.92,15.4-21.08,22.92c-4.26,4.47-8.72,8.78-13.35,12.87c-4.54,4.02-9.4,7.68-14.14,11.47
		c-4.04,3.24-7.92,6.71-12.2,9.6c-3.94,2.66-8.31,4.68-12.48,6.98c-4.24,2.34-8.39,4.85-12.73,6.99c-4.76,2.34-9.68,4.38-14.56,6.49
		c-4.84,2.1-9.62,4.41-14.61,6.09c-5.94,2-11.99,3.81-18.13,5.01c-5.3,1.04-10.78,1.2-16.2,1.61c-4.68,0.35-9.38,0.6-14.07,0.74
		c-5.92,0.17-11.86,0.42-17.78,0.2c-4.7-0.18-9.45-0.68-14.05-1.63c-7.98-1.65-15.95-3.47-23.78-5.74
		c-7.99-2.32-15.9-4.99-23.65-8.03c-4.31-1.69-8.37-4.18-12.25-6.76c-4.2-2.79-8.4-5.75-12.01-9.25
		c-6.19-6.01-12.19-12.33-16.2-20.08c-2.88-5.57-5.71-11.23-6.93-17.51c-1.12-5.76-2.58-11.46-3.52-17.25
		c-1.63-10.14-0.54-20.18,2.18-30c1.56-5.62,3.32-11.22,5.51-16.63c3.09-7.64,6.8-15.03,9.98-22.63c2.41-5.74,5.06-11.51,6.4-17.53
		c1.24-5.59,1.59-11.62,0.95-17.31c-0.44-3.95-3.12-7.73-7-9.92c-1.51-0.85-3.09-1.71-4.75-2.13c-5.91-1.49-12.67,1.71-15.23,7.19
		c-0.54,1.15-0.53,2.58-0.67,3.89c-0.18,1.6-0.38,3.22-0.33,4.83c0.03,0.9,0.46,2.48,0.85,2.53c1.02,0.12,2.53-0.1,3.12-0.8
		c1.69-2.01,3.16-3.44,6.21-2.66c3.46,0.88,6.16,3.62,5.97,7.2c-0.06,1.16-0.29,2.43-0.84,3.43c-2.08,3.73-4.82,7.37-9.19,7.77
		c-4.99,0.46-9.43-1.46-12.62-5.92c-4.73-6.62-3.85-13.11-0.38-19.78c0.35-0.67,0.54-1.43,0.8-2.15
		C32.83,109.92,32.61,109.78,32.39,109.64z"/>
	<path class="st2" d="M205.36,278.32c-4.31-2.02-7.51-5.41-10.92-8.53c-1.18-1.08-2.5-2-3.76-3c-0.14,1.6-0.41,3.2-0.39,4.79
		c0.04,2.28,0.33,4.56,0.46,6.85c0.11,2.02-0.75,3.26-2.9,3.37c-2.43,0.13-2.06-1.66-2.18-3.15c-0.63-8.03-1.21-16.07-1.95-24.09
		c-0.3-3.21,2.23-6.64,5.78-7.17c2.09-0.32,4.21-0.51,6.32-0.63c2.38-0.14,4.35,1.49,4.87,3.81c0.98,4.35,0.24,8.25-3.01,11.48
		c-1.74,1.73-1.63,3.14,0.32,4.76c2.6,2.16,4.93,4.65,7.46,6.89C207.25,275.28,207,276.69,205.36,278.32z M189.68,261.84
		c0.71-0.2,1.33-0.43,1.98-0.56c4.89-0.94,5.39-1.97,4.88-6.96c-0.23-2.26-2.42-3.76-4.53-3.42c-2.69,0.44-4.08,1.95-3.71,4.25
		C188.64,257.3,189.17,259.42,189.68,261.84z"/>
	<path class="st2" d="M181.76,266.23c-0.5,6-1.75,9.87-5,12.92c-0.6,0.56-0.99,1.36-1.42,2.09c-1.07,1.84-2.49,2.91-4.77,2.62
		c-1.85-0.23-4.09,0.36-5.51-0.5c-3.91-2.36-5.3-6.61-5.42-10.81c-0.16-5.25,1.89-10.14,4.6-14.62c1.45-2.4,3.35-4.27,6.43-4.91
		c4.51-0.94,7.99,0.69,9.26,5.16C180.83,261.35,181.39,264.6,181.76,266.23z M174.38,256.89c-1.54,0.43-3.1,0.56-4.33,1.26
		c-4.65,2.66-8.25,11.56-6.94,16.72c0.91,3.58,4.22,5.16,7.37,3.26c1.67-1,3.26-2.37,4.43-3.92c2.53-3.35,3.01-7.4,3.29-11.47
		C178.41,259.69,175.89,258.58,174.38,256.89z"/>
	<path class="st2" d="M363.87,186.91c0.95-1.51,1.89-3.01,3.01-4.79c11.22,13.07,22.27,25.95,33.74,39.31
		c-2.75,0.37-4.7,0.63-6.62,0.89C384.43,210.1,372.32,200.09,363.87,186.91z"/>
	<path class="st2" d="M286.76,207.3c0.71-2.45,0.92-5.2,2.21-7.28c3.63-5.86,11.66-5.18,15.21,0.74c2.16,3.6,3.51,7.35,4.26,11.41
		c0.52,2.82-2.91,8.05-6.03,9.36c-5.23,2.2-10.29,0.73-12.38-5.21c-0.64-1.83-1.69-3.52-2.32-5.35c-0.37-1.08-0.27-2.32-0.39-3.49
		C287.14,207.41,286.95,207.36,286.76,207.3z M302.73,209.49c-0.27-3.09-0.67-6.04-2.94-8.36c-1.72-1.75-3.71-0.97-5.67-0.65
		c-1.62,0.26-2.08,1.43-2.36,2.76c-0.85,3.99,0.37,7.67,2.45,10.85c2.38,3.62,7.16,3.07,8.46-0.76
		C303.07,212.16,302.73,210.73,302.73,209.49z"/>
	<path class="st2" d="M429.09,195.38c0.25,6.68-2.43,10.96-6.57,14.45c-1.98,1.66-4.14,3.13-6.34,4.48
		c-4.14,2.54-8.35,1.58-12.33-0.37c-3.29-1.61-5.64-4.3-7.07-7.73c-0.19-0.46-0.51-0.88-1.09-1.85
		C408.04,206.27,419.55,205.61,429.09,195.38z"/>
	<path class="st2" d="M218.3,268.76c-0.18-8.29-0.38-16.57-0.51-24.86c-0.01-0.9,0.04-2.02,0.55-2.67c1.13-1.45,2.43-0.92,3.41,0.33
		c3.25,4.15,6.52,8.3,9.66,12.53c1.95,2.64,3.76,5.4,5.46,8.21c0.37,0.61-0.02,1.67-0.06,2.53c-0.89-0.07-2.12,0.21-2.59-0.27
		c-1.6-1.61-2.93-3.49-4.35-5.27c-0.85-1.07-1.72-1.4-3.01-0.54c-1.32,0.88-3.36,1.17-4.1,2.34c-0.84,1.33-0.73,3.34-0.75,5.06
		c-0.03,2.05,0.95,4.27-1.14,5.86c-0.53,0.41-1.44,0.84-1.92,0.64c-0.45-0.18-0.66-1.17-0.79-1.84c-0.13-0.66-0.03-1.37-0.03-2.05
		C218.18,268.76,218.24,268.76,218.3,268.76z M226.6,254.37c-1.89-2.28-3.57-4.31-5.24-6.34c-0.23,0.1-0.46,0.2-0.69,0.3
		c0.39,2.81,0.78,5.62,1.21,8.72C223.58,256.08,224.88,255.34,226.6,254.37z"/>
	<path class="st2" d="M397.74,137.49c8.53,9.35,16.81,18.42,25.12,27.53c-1.92,1.14-3.73,2.2-5.7,3.37c-2.84-3-5.82-6.12-8.78-9.26
		c-2.16-2.29-4.29-4.61-6.43-6.91c-2.41-2.6-4.91-5.13-7.2-7.83c-1.22-1.44-1.54-2.99,0.59-4.24
		C396.22,139.62,396.8,138.56,397.74,137.49z"/>
	<path class="st2" d="M248.28,226.16c3.68-0.05,6.41,1.89,7.33,5.36c0.59,2.21,0.42,4.63,0.58,6.95c0.22,3.38-2.3,5.16-4.56,6.59
		c-2.19,1.38-2.03,2.72-1.29,4.57c0.71,1.8,1.58,3.57,2.04,5.43c0.19,0.76-0.52,1.74-0.81,2.61c-0.81-0.47-1.99-0.75-2.36-1.45
		c-1.99-3.75-3.77-7.6-5.64-11.41c-1.72-3.5-3.53-6.95-5.12-10.51c-0.34-0.76-0.29-2.31,0.22-2.73
		C241.69,229.04,245.01,226.95,248.28,226.16z M242.44,233.19c1.59,3.22,3.16,6.41,4.76,9.65c6.47-4.31,7.21-5.59,5.38-9.03
		C250.92,230.65,249.45,230.55,242.44,233.19z"/>
	<path class="st2" d="M268.66,213.4c5.9,3.2,11.73,6.36,17.56,9.52c0.13-0.11,0.27-0.21,0.4-0.32c-1.93-3.19-3.99-6.31-5.74-9.59
		c-1.04-1.97-3.17-3.59-2.52-6.25c0.09-0.38,0.38-0.71,0.77-1.42c0.82,0.87,1.63,1.48,2.12,2.3c3.64,6.07,7.25,12.16,10.79,18.28
		c0.37,0.63,0.58,2.01,0.25,2.26c-0.65,0.51-1.93,0.93-2.59,0.62c-4.79-2.27-9.48-4.74-14.21-7.14c-0.48-0.24-0.97-0.47-1.88-0.91
		c3.03,5.81,5.82,11.17,8.68,16.66c-2.43,0.97-3.71,0.54-4.64-1.38c-2.94-6.08-5.98-12.11-8.96-18.16
		C267.97,216.4,267.34,214.91,268.66,213.4z"/>
	<path class="st2" d="M267.47,233.88c-1.56,0.98-2.99,1.76-4.25,2.75c-0.46,0.37-0.73,1.26-0.71,1.9c0.06,2.12,0.28,4.25,0.46,6.37
		c0.17,2.02,0.38,4.03,0.57,6.08c-2.5,0.97-3.7-0.03-3.97-2.17c-0.45-3.55-0.78-7.12-1.05-10.69c-0.41-5.51-0.74-11.04-1.06-16.56
		c-0.03-0.6,0.07-1.5,0.45-1.77c0.4-0.28,1.43-0.21,1.82,0.13c2.55,2.18,5.2,4.3,7.46,6.77c3.26,3.57,6.3,7.36,9.24,11.21
		c0.62,0.81,0.8,2.41,0.46,3.4c-0.53,1.56-1.76,1.63-2.9,0.28C271.89,239.06,269.75,236.57,267.47,233.88z M265.65,230.71
		c-0.33,0.05-0.66,0.09-0.99,0.14c-1.24-1.71-2.48-3.42-4.07-5.62c0.37,2.98,0.66,5.22,1.04,8.26
		C263.18,232.42,264.42,231.56,265.65,230.71z"/>
	<path class="st2" d="M429.53,160.8c-5.39,3.03-5.3,2.95-9.05-1.31c-4.46-5.07-9.11-9.97-13.65-14.97
		c-2.56-2.81-5.07-5.67-7.85-8.79c1.36-1.3,2.64-2.52,4.27-4.08C412.03,141.4,420.69,151,429.53,160.8z"/>
	<path class="st2" d="M404.85,129.71c0.66-0.3,1.17-0.43,1.56-0.73c3.11-2.4,3.29-2.26,5.91,0.74c3.43,3.93,7.1,7.66,10.63,11.51
		c3.56,3.87,7.04,7.82,10.64,11.65c0.65,0.69,1.7,1,2.86,1.65c-1.71,1.45-3.36,2.84-5.24,4.43
		C422.42,149.21,413.71,139.54,404.85,129.71z"/>
	<path class="st2" d="M390.94,222.4c-5.16,0.35-8.16-1.69-11.05-5.3c-5.05-6.31-10.93-11.94-16.36-17.95
		c-1.16-1.28-1.81-3.01-2.83-4.43c-1.95-2.74,0.4-3.95,1.69-5.65C371.95,200.23,381.35,211.21,390.94,222.4z"/>
	<path class="st2" d="M441.77,147.77c-1.31,1.72-2.53,3.33-3.83,5.03c-8.87-9.09-17.61-18.05-26.33-27
		c2.32-2.81,4.59-2.99,6.79-0.76c7.04,7.17,14.1,14.32,21.18,21.44C440.07,146.99,440.82,147.23,441.77,147.77z"/>
	<path class="st2" d="M148.43,255.18c-2.67-0.36-4.69-0.63-6.69-0.9c-0.65-3.1,0.09-3.8,3.06-3.46c4.31,0.5,8.65,0.7,12.96,1.21
		c1.23,0.15,2.49,0.76,3.53,1.46c0.42,0.28,0.51,1.5,0.28,2.11c-0.16,0.43-1.13,0.78-1.73,0.77c-2.06-0.04-4.12-0.26-6.41-0.43
		c-0.79,5.61-1.54,11.02-2.31,16.42c-0.33,2.34-0.4,4.78-1.17,6.97c-0.39,1.12-2.08,1.78-3.18,2.65c-0.3-0.08-0.6-0.15-0.91-0.23
		c-0.05-1.66-0.3-3.35-0.11-4.99C146.55,269.62,147.5,262.49,148.43,255.18z"/>
	<path class="st2" d="M309.83,189.76c-0.23-0.68-0.29-1.22-0.57-1.57c-0.62-0.78-1.35-2.05-2.03-2.04
		c-0.99,0.01-2.28,0.75-2.87,1.58c-0.4,0.57-0.17,2.14,0.37,2.71c0.78,0.83,2.03,1.43,3.17,1.63c2.38,0.42,4.84,0.37,7.22,0.79
		c1.51,0.26,3.4,0.61,4.29,1.64c1.94,2.24,2.73,5.13,1.8,8.1c-1.04,3.32-7.95,7.02-11.78,4.16c-0.52-0.39-1.14-0.84-1.35-1.39
		c-0.3-0.78-0.26-1.69-0.36-2.55c0.76,0.1,1.54,0.11,2.27,0.32c0.71,0.21,1.4,0.96,2.02,0.88c1.35-0.19,2.91-0.45,3.92-1.26
		c1.74-1.39,1.11-3.35-0.04-4.79c-0.65-0.81-1.93-1.35-3.01-1.51c-1.66-0.25-3.41,0.1-5.07-0.12c-4.01-0.53-6.37-2.87-7.38-6.57
		c-0.51-1.85,3.09-6.03,4.91-7.06c1.18-0.67,5.33,0.78,6.17,2.01C312.39,186,311.69,188.54,309.83,189.76z"/>
	<path class="st2" d="M101.85,257.4c4.14-4.19,8.03-8.25,12.11-12.11c0.51-0.48,2.03,0.1,3.74,0.25c-1.05,1.43-1.6,2.34-2.3,3.12
		c-4.68,5.16-9.39,10.3-14.11,15.44c-0.45,0.49-0.97,1.02-1.57,1.27c-0.95,0.41-1.99,0.6-2.99,0.88c-0.22-0.86-0.7-1.75-0.62-2.59
		c0.43-4.47,1.04-8.92,1.49-13.39c0.19-1.87,0.04-3.76,0.2-5.63c0.11-1.22,0.28-2.56,0.88-3.58c0.28-0.48,1.88-0.75,2.42-0.4
		c0.75,0.48,1.56,1.67,1.51,2.49c-0.29,4.38-0.86,8.74-1.26,13.11C101.3,256.69,101.72,257.14,101.85,257.4z"/>
	<path class="st2" d="M359.91,142.68c-1.29,2.95-2.72,1.82-3.75,0.96c-2.66-2.24-5.16-4.65-7.72-7.01
		c-0.69-0.63-1.25-1.44-2.02-1.94c-1.45-0.95-1.56-2.39-0.78-3.44c0.61-0.82,2.03-1.32,3.14-1.41c1.85-0.15,3.74,0.13,5.98,0.25
		c-0.59-2.21-0.99-3.92-1.52-5.59c-0.54-1.71-0.16-3.23,1.34-3.97c0.84-0.41,2.37-0.29,3.17,0.23c3.73,2.47,7.33,5.16,10.96,7.79
		c1.36,0.99,1.52,2.49,0.46,3.48c-0.43,0.4-2.23-0.27-3.12-0.88c-2.93-1.98-5.74-4.16-9.25-6.74c0,1.51-0.12,2.23,0.03,2.89
		c0.19,0.82,0.72,1.57,0.88,2.4c0.27,1.42,0.35,2.87,0.51,4.31c-1.46,0.03-2.93,0.11-4.39,0.06c-1.05-0.04-2.1-0.27-3.7-0.48
		C353.64,136.84,356.83,139.8,359.91,142.68z"/>
	<path class="st2" d="M135.38,269.45c2.68,0.93,2.95,2.03,1.13,4.09c-1.99,2.25-3.67,5.09-7.18,4.01
		c-4.42-1.36-7.63-6.11-6.88-10.08c0.64-3.38,1.37-6.89,2.9-9.92c1.94-3.84,5.02-6.87,9.8-7.17c1.92-0.12,3.41,0.73,3.95,2.6
		c0.7,2.41,1.92,4.89-0.04,7.37c-1.87,0.08-2.26-0.9-2.41-2.65c-0.11-1.25-0.9-2.71-1.87-3.49c-0.38-0.31-2.4,0.66-3.06,1.52
		c-3.24,4.23-6.27,8.62-4.82,14.45c0.12,0.48,0.24,1.02,0.53,1.4c2.28,2.98,3.25,3.66,5.66,0.76
		C133.86,271.41,134.58,270.47,135.38,269.45z"/>
	<path class="st2" d="M336.09,147.15c0.02-5.22,3.32-8.11,8.81-7.69c5.26,0.41,9.01,3.54,9.3,8.7c0.37,6.45-4.16,11.33-10.9,10.2
		c-2.95-0.5-7.05-6.21-7.21-9.67C336.07,148.18,336.09,147.67,336.09,147.15z M340.26,147.27c0.53,2.05,0.75,3.84,1.46,5.43
		c1.19,2.67,4.04,2.86,6.16,0.97c1.78-1.59,1.16-8.57-0.43-10.07c-1.65-1.55-4.65-1.87-5.89-0.25
		C340.73,144.42,340.63,146.03,340.26,147.27z"/>
	<path class="st2" d="M408.73,173.7c-1.58,1.15-2.86,2.09-4.39,3.21c-6.65-7.27-13.24-14.48-19.96-21.83
		c1.15-1.76,2.25-3.43,3.53-5.37C394.92,157.8,401.79,165.7,408.73,173.7z"/>
	<path class="st2" d="M383.55,156.72c6.36,7.43,12.54,14.65,18.72,21.88c-0.04,0.06-0.09,0.13-0.15,0.19
		c-3.7,3.85-3.68,3.83-7.17-0.04c-3.93-4.34-7.94-8.61-11.85-12.97c-3.01-3.35-2.98-3.91-0.39-7.69
		C383,157.68,383.23,157.24,383.55,156.72z"/>
	<path class="st2" d="M414.76,169.51c-1.35,0.85-2.6,1.65-3.8,2.4c-4.07-4.3-8.09-8.54-12.09-12.8c-2.47-2.64-4.97-5.26-7.29-8.02
		c-2.87-3.41-2.78-3.68,0.55-7.17C399.59,152.35,407.05,160.78,414.76,169.51z"/>
	<path class="st2" d="M335.66,158.93c-0.85-0.26-1.68-0.37-2.37-0.74c-2.14-1.12-3.61-0.33-4.28,2.04c-0.84,2.96,0.24,5.43,1.68,7.8
		c1.29,2.13,3.47,1.98,5.5,1.53c2.35-0.52,4.1-1.8,4.54-4.45c0.14-0.84,0.76-1.6,1.15-2.4c0.9,0.78,2.08,1.4,2.65,2.38
		c1.98,3.38-1.31,7.57-5.73,8.74c-6.67,1.76-12.43-0.49-13.45-9.71c-0.25-2.28,0.41-4.78,1.15-7.01c0.91-2.74,3.36-2.91,5.83-2.53
		C334.62,154.94,335.64,156.36,335.66,158.93z"/>
	<path class="st2" d="M393.82,188.79c-3.94-3.97-7.76-7.59-11.3-11.47c-2.2-2.41-4.02-5.18-5.88-7.88
		c-0.31-0.45-0.15-1.49,0.16-2.06c0.67-1.24,1.57-2.35,2.51-3.71c1.54,1.91,2.92,3.7,4.39,5.4c2.51,2.91,5.1,5.75,7.62,8.65
		c1.36,1.57,2.64,3.21,3.95,4.84C397.37,185.2,394.41,186.51,393.82,188.79z"/>
	<path class="st2" d="M390.11,196.64c-6.42-7.24-12.54-14.14-18.77-21.17c1.24-1.75,2.29-3.24,3.46-4.91
		c3.52,4.18,6.93,8.27,10.39,12.33c1.6,1.88,3.21,3.76,4.97,5.48c1.48,1.45,2.34,2.78,0.98,4.82
		C390.62,193.99,390.55,195.11,390.11,196.64z"/>
	<path class="st2" d="M390.26,206.05c-4.56-4.8-9.27-9.61-13.8-14.6c-2.63-2.89-4.89-6.11-7.44-9.07c-2.15-2.49,0.64-3.44,1.48-5.56
		c3.26,3.82,6.33,7.39,9.37,10.99c2.92,3.46,5.87,6.9,8.69,10.45c0.64,0.81,0.96,1.97,1.16,3.02
		C390.03,202.88,390.1,204.54,390.26,206.05z"/>
	<path class="st2" d="M359.31,196.73c7.11,8.28,13.83,16.12,20.66,24.07C371.83,221.84,358.81,207.02,359.31,196.73z"/>
	<path class="st2" d="M419.06,122.55c2.28-0.59,3.68-0.95,4.49-1.16c7.12,6.53,14.02,12.86,21.08,19.34
		c-0.67,1.41-0.92,2.92-1.7,3.29c-0.64,0.3-2.1-0.57-2.88-1.28c-2.55-2.31-4.94-4.81-7.43-7.2
		C428.25,131.32,423.84,127.12,419.06,122.55z"/>
	<path class="st2" d="M206.78,245.55c0.33,0.54,0.87,1.11,1.05,1.78c2.44,9.27,4.84,18.56,7.27,27.96c-3.53,0.23-4.33-1.2-4.91-3.79
		c-1.22-5.5-3-10.87-4.57-16.3c-0.42-1.45-0.66-3.01-1.35-4.33C202.87,248.23,203.52,246.59,206.78,245.55z"/>
	<path class="st2" d="M120.98,248.21c3.03,2.21,1.63,4.32,0.7,6.39c-2.21,4.92-4.43,9.83-6.7,14.72c-0.58,1.25-1.38,2.4-2.07,3.57
		c-0.33-0.1-0.51-0.11-0.65-0.21c-3.18-2.21-3.42-2.33-1.75-5.83c2.7-5.67,5.73-11.18,8.69-16.72
		C119.61,249.37,120.4,248.82,120.98,248.21z"/>
	<path class="st2" d="M444.57,137.11c-2.84-2.64-5.65-5.25-8.46-7.85c-2.83-2.62-5.66-5.25-8.49-7.87c0.11-0.27,0.23-0.53,0.34-0.8
		c2.56,0.21,5.11,0.41,7.66,0.67c0.35,0.04,0.73,0.37,0.98,0.66c2.56,3.11,5.12,6.23,7.62,9.39
		C445.84,133.35,445.43,135.44,444.57,137.11z"/>
	<path class="st2" d="M331.99,186.85c-1.16,0.77-2.03,1.76-2.51,1.59c-0.77-0.27-1.54-1.22-1.77-2.03c-0.11-0.4,1.17-1.73,1.49-1.62
		C330.09,185.09,330.8,185.91,331.99,186.85z"/>
	<path class="st2" d="M400.45,217.43c1.9,0.58,4.1,1.25,6.06,1.85C404.27,221.37,403.1,221.05,400.45,217.43z"/>
	<path class="st2" d="M309.42,206.74c3.84,2.86,10.74-0.84,11.78-4.16c0.93-2.96,0.14-5.86-1.8-8.1c-0.89-1.03-2.78-1.38-4.29-1.64
		c-2.38-0.42-4.84-0.37-7.22-0.79c-1.14-0.2-2.4-0.81-3.17-1.63c-0.54-0.57-0.77-2.13-0.37-2.71c0.59-0.83,1.87-1.57,2.87-1.58
		c0.68-0.01,1.42,1.27,2.03,2.04c0.28,0.36,0.34,0.9,0.57,1.57c1.85-1.21,2.56-3.75,1.66-5.07c-0.85-1.23-4.99-2.68-6.17-2.01
		c-1.82,1.03-5.42,5.21-4.91,7.06c1.01,3.7,3.37,6.04,7.38,6.57c1.67,0.22,3.41-0.13,5.07,0.12c1.07,0.16,2.36,0.71,3.01,1.51
		c1.15,1.44,1.79,3.4,0.04,4.79c-1.01,0.81-2.57,1.06-3.92,1.26c-0.61,0.09-1.31-0.67-2.02-0.88c-0.72-0.21-1.51-0.22-2.27-0.32
		c0.1,0.86,0.07,1.77,0.36,2.55C308.29,205.9,308.9,206.35,309.42,206.74z"/>
	<path class="st2" d="M226.86,258.76c1.29-0.86,2.15-0.54,3.01,0.54c1.42,1.79,2.75,3.66,4.35,5.27c0.47,0.48,1.71,0.2,2.59,0.27
		c0.04-0.85,0.42-1.92,0.06-2.53c-1.7-2.81-3.51-5.57-5.46-8.21c-3.14-4.24-6.41-8.38-9.66-12.53c-0.98-1.25-2.28-1.78-3.41-0.33
		c-0.5,0.64-0.56,1.77-0.55,2.67c0.14,8.29,0.33,16.57,0.51,24.86c-0.06,0-0.12,0-0.18,0c0,0.69-0.1,1.39,0.03,2.05
		c0.13,0.67,0.34,1.66,0.79,1.84c0.48,0.2,1.39-0.23,1.92-0.64c2.09-1.59,1.11-3.81,1.14-5.86c0.02-1.72-0.08-3.74,0.75-5.06
		C223.5,259.92,225.53,259.64,226.86,258.76z"/>
	<path class="st2" d="M251.63,245.05c2.26-1.42,4.78-3.21,4.56-6.59c-0.15-2.32,0.01-4.74-0.58-6.95c-0.92-3.46-3.65-5.41-7.33-5.36
		c-3.27,0.79-6.6,2.89-9.63,5.41c-0.51,0.42-0.56,1.97-0.22,2.73c1.59,3.55,3.4,7.01,5.12,10.51c1.87,3.81,3.65,7.67,5.64,11.41
		c0.37,0.7,1.56,0.98,2.36,1.45c0.3-0.88,1-1.86,0.81-2.61c-0.46-1.87-1.32-3.63-2.04-5.43
		C249.6,247.77,249.43,246.43,251.63,245.05z"/>
	<path class="st2" d="M338.81,173.84c4.42-1.17,7.71-5.36,5.73-8.74c-0.57-0.97-1.75-1.6-2.65-2.38c-0.4,0.8-1.01,1.56-1.15,2.4
		c-0.44,2.65-2.19,3.93-4.54,4.45c-2.03,0.45-4.21,0.6-5.5-1.53c-1.44-2.37-2.52-4.84-1.68-7.8c0.67-2.37,2.14-3.16,4.28-2.04
		c0.69,0.36,1.51,0.48,2.37,0.74c-0.02-2.57-1.04-3.99-3.32-4.34c-2.47-0.38-4.93-0.21-5.83,2.53c-0.74,2.23-1.4,4.73-1.15,7.01
		C326.38,173.35,332.14,175.6,338.81,173.84z"/>
	<path class="st2" d="M215.11,275.29c-2.44-9.41-4.83-18.69-7.27-27.96c-0.18-0.67-0.72-1.24-1.05-1.78
		c-3.26,1.04-3.91,2.69-2.51,5.33c0.7,1.31,0.94,2.87,1.35,4.33c1.56,5.42,3.35,10.8,4.57,16.3
		C210.77,274.09,211.58,275.52,215.11,275.29z"/>
	<path class="st2" d="M327.71,186.41c0.23,0.81,1,1.76,1.77,2.03c0.48,0.17,1.35-0.82,2.51-1.59c-1.19-0.94-1.91-1.76-2.8-2.06
		C328.89,184.68,327.6,186.01,327.71,186.41z"/>
	<path class="st2" d="M354.2,148.17c-0.3-5.17-4.04-8.3-9.3-8.7c-5.49-0.42-8.8,2.47-8.81,7.69c0,0.51-0.02,1.03,0,1.54
		c0.16,3.45,4.26,9.17,7.21,9.67C350.05,159.5,354.57,154.62,354.2,148.17z"/>
	<path class="st2" d="M145.84,281.76c0.3,0.08,0.6,0.15,0.91,0.23c1.1-0.87,2.78-1.53,3.18-2.65c0.77-2.19,0.84-4.63,1.17-6.97
		c0.77-5.4,1.52-10.8,2.31-16.42c2.29,0.17,4.35,0.38,6.41,0.43c0.6,0.01,1.57-0.34,1.73-0.77c0.23-0.61,0.13-1.82-0.28-2.11
		c-1.04-0.71-2.3-1.32-3.53-1.46c-4.31-0.51-8.65-0.71-12.96-1.21c-2.97-0.34-3.71,0.36-3.06,3.46c2,0.27,4.02,0.54,6.69,0.9
		c-0.92,7.31-1.88,14.44-2.7,21.58C145.54,278.4,145.79,280.09,145.84,281.76z"/>
	<path class="st2" d="M302.42,221.53c3.12-1.32,6.56-6.54,6.03-9.36c-0.76-4.06-2.1-7.81-4.26-11.41
		c-3.55-5.92-11.58-6.6-15.21-0.74c-1.29,2.08-1.51,4.84-2.21,7.28c0.19,0.06,0.38,0.12,0.57,0.18c0.11,1.17,0.02,2.41,0.39,3.49
		c0.63,1.83,1.68,3.52,2.32,5.35C292.13,222.26,297.19,223.73,302.42,221.53z"/>
	<path class="st2" d="M267.47,233.88c2.29,2.69,4.42,5.18,6.54,7.69c1.14,1.35,2.36,1.28,2.9-0.28c0.34-0.99,0.16-2.59-0.46-3.4
		c-2.94-3.85-5.98-7.63-9.24-11.21c-2.26-2.47-4.9-4.59-7.46-6.77c-0.39-0.34-1.42-0.41-1.82-0.13c-0.38,0.27-0.49,1.16-0.45,1.77
		c0.32,5.52,0.65,11.04,1.06,16.56c0.27,3.57,0.6,7.14,1.05,10.69c0.27,2.14,1.47,3.14,3.97,2.17c-0.19-2.05-0.4-4.06-0.57-6.08
		c-0.18-2.12-0.4-4.24-0.46-6.37c-0.02-0.64,0.25-1.54,0.71-1.9C264.48,235.64,265.91,234.86,267.47,233.88z"/>
	<path class="st2" d="M289.7,228.79c0.66,0.31,1.94-0.11,2.59-0.62c0.32-0.25,0.11-1.62-0.25-2.26
		c-3.54-6.13-7.14-12.22-10.79-18.28c-0.49-0.81-1.3-1.43-2.12-2.3c-0.39,0.7-0.68,1.04-0.77,1.42c-0.65,2.66,1.47,4.28,2.52,6.25
		c1.74,3.29,3.81,6.4,5.74,9.59c-0.13,0.11-0.27,0.21-0.4,0.32c-5.83-3.16-11.66-6.32-17.56-9.52c-1.31,1.51-0.68,3,0.04,4.47
		c2.98,6.05,6.02,12.08,8.96,18.16c0.93,1.92,2.21,2.35,4.64,1.38c-2.86-5.5-5.65-10.85-8.68-16.66c0.9,0.43,1.39,0.66,1.88,0.91
		C280.22,224.05,284.91,226.52,289.7,228.79z"/>
	<path class="st2" d="M194.44,269.79c3.42,3.12,6.62,6.51,10.92,8.53c1.64-1.63,1.89-3.04,0.1-4.63c-2.53-2.25-4.86-4.73-7.46-6.89
		c-1.95-1.62-2.06-3.03-0.32-4.76c3.25-3.23,3.99-7.12,3.01-11.48c-0.52-2.31-2.49-3.94-4.87-3.81c-2.11,0.12-4.23,0.31-6.32,0.63
		c-3.55,0.54-6.08,3.96-5.78,7.17c0.74,8.02,1.32,16.06,1.95,24.09c0.12,1.5-0.26,3.28,2.18,3.15c2.14-0.11,3.01-1.35,2.9-3.37
		c-0.13-2.28-0.42-4.56-0.46-6.85c-0.03-1.59,0.25-3.2,0.39-4.79C191.94,267.78,193.26,268.71,194.44,269.79z"/>
	<path class="st2" d="M112.26,272.68c0.13,0.09,0.32,0.11,0.65,0.21c0.68-1.17,1.49-2.32,2.07-3.57c2.27-4.89,4.49-9.8,6.7-14.72
		c0.93-2.07,2.33-4.18-0.7-6.39c-0.58,0.61-1.37,1.16-1.77,1.92c-2.96,5.54-5.99,11.05-8.69,16.72
		C108.85,270.35,109.09,270.47,112.26,272.68z"/>
	<path class="st2" d="M101.09,240.67c-0.54-0.35-2.14-0.08-2.42,0.4c-0.6,1.02-0.77,2.35-0.88,3.58c-0.17,1.87-0.02,3.77-0.2,5.63
		c-0.45,4.47-1.06,8.92-1.49,13.39c-0.08,0.83,0.4,1.72,0.62,2.59c1-0.28,2.04-0.48,2.99-0.88c0.6-0.26,1.12-0.78,1.57-1.27
		c4.72-5.13,9.43-10.27,14.11-15.44c0.7-0.78,1.25-1.69,2.3-3.12c-1.71-0.15-3.23-0.73-3.74-0.25c-4.08,3.86-7.97,7.92-12.11,12.11
		c-0.13-0.26-0.55-0.71-0.51-1.12c0.41-4.37,0.98-8.73,1.26-13.11C102.66,242.34,101.85,241.15,101.09,240.67z"/>
	<path class="st2" d="M165.06,283.38c1.42,0.85,3.66,0.26,5.51,0.5c2.28,0.29,3.7-0.79,4.77-2.62c0.43-0.73,0.82-1.53,1.42-2.09
		c3.25-3.06,4.5-6.93,5-12.92c-0.36-1.64-0.93-4.88-1.82-8.03c-1.27-4.47-4.75-6.1-9.26-5.16c-3.08,0.64-4.98,2.5-6.43,4.91
		c-2.71,4.48-4.76,9.37-4.6,14.62C159.77,276.77,161.16,281.02,165.06,283.38z"/>
	<path class="st2" d="M134.78,254.2c0.96,0.78,1.76,2.24,1.87,3.49c0.15,1.75,0.53,2.74,2.41,2.65c1.96-2.48,0.74-4.96,0.04-7.37
		c-0.54-1.87-2.03-2.72-3.95-2.6c-4.77,0.3-7.85,3.33-9.8,7.17c-1.53,3.03-2.25,6.54-2.9,9.92c-0.76,3.97,2.46,8.72,6.88,10.08
		c3.51,1.08,5.18-1.76,7.18-4.01c1.83-2.06,1.55-3.16-1.13-4.09c-0.8,1.01-1.52,1.96-2.27,2.87c-2.41,2.9-3.38,2.22-5.66-0.76
		c-0.29-0.38-0.41-0.92-0.53-1.4c-1.45-5.82,1.58-10.22,4.82-14.45C132.38,254.86,134.4,253.89,134.78,254.2z"/>
	<path class="st2" d="M393.82,188.79c0.59-2.28,3.55-3.6,1.43-6.23c-1.3-1.62-2.59-3.26-3.95-4.84c-2.51-2.9-5.11-5.74-7.62-8.65
		c-1.47-1.71-2.85-3.5-4.39-5.4c-0.94,1.36-1.84,2.47-2.51,3.71c-0.31,0.57-0.47,1.61-0.16,2.06c1.86,2.7,3.68,5.47,5.88,7.88
		C386.06,181.2,389.88,184.82,393.82,188.79z"/>
	<path class="st2" d="M371.34,175.48c6.23,7.03,12.35,13.93,18.77,21.17c0.44-1.54,0.5-2.65,1.04-3.45c1.36-2.04,0.5-3.36-0.98-4.82
		c-1.76-1.73-3.37-3.61-4.97-5.48c-3.46-4.05-6.87-8.15-10.39-12.33C373.63,172.23,372.58,173.72,371.34,175.48z"/>
	<path class="st2" d="M366.05,131.15c0.89,0.6,2.7,1.27,3.12,0.88c1.07-0.99,0.9-2.49-0.46-3.48c-3.63-2.63-7.22-5.32-10.96-7.79
		c-0.79-0.53-2.33-0.65-3.17-0.23c-1.51,0.74-1.89,2.27-1.34,3.97c0.53,1.67,0.93,3.39,1.52,5.59c-2.24-0.12-4.13-0.41-5.98-0.25
		c-1.11,0.09-2.53,0.59-3.14,1.41c-0.78,1.05-0.67,2.5,0.78,3.44c0.77,0.5,1.33,1.31,2.02,1.94c2.56,2.36,5.06,4.77,7.72,7.01
		c1.02,0.86,2.45,1.99,3.75-0.96c-3.09-2.87-6.27-5.83-9.78-9.1c1.6,0.22,2.64,0.45,3.7,0.48c1.46,0.05,2.93-0.03,4.39-0.06
		c-0.16-1.44-0.25-2.89-0.51-4.31c-0.15-0.82-0.69-1.57-0.88-2.4c-0.15-0.66-0.03-1.37-0.03-2.89
		C360.31,126.99,363.12,129.16,366.05,131.15z"/>
	<path class="st2" d="M363.87,186.91c8.45,13.18,20.56,23.2,30.13,35.41c1.92-0.26,3.87-0.52,6.62-0.89
		c-11.47-13.36-22.53-26.25-33.74-39.31C365.76,183.9,364.82,185.4,363.87,186.91z"/>
	<path class="st2" d="M396.76,206.21c1.43,3.43,3.78,6.12,7.07,7.73c3.98,1.95,8.19,2.91,12.33,0.37c2.2-1.35,4.37-2.82,6.34-4.48
		c4.14-3.48,6.83-7.77,6.57-14.45c-9.53,10.23-21.05,10.89-33.41,8.97C396.25,205.33,396.57,205.74,396.76,206.21z"/>
	<path class="st2" d="M406.51,219.28c-1.96-0.6-4.16-1.27-6.06-1.85C403.1,221.05,404.27,221.37,406.51,219.28z"/>
	<path class="st1" d="M120.17,87.34c-0.13-0.01-0.25-0.02-0.38-0.03l-0.16,0.3C119.82,87.51,120,87.42,120.17,87.34z"/>
	<path class="st2" d="M360.7,194.73c1.02,1.43,1.67,3.15,2.83,4.43c5.43,6.01,11.31,11.64,16.36,17.95
		c2.89,3.61,5.89,5.64,11.05,5.3c-9.59-11.2-19-22.18-28.54-33.33C361.11,190.78,358.76,191.99,360.7,194.73z"/>
	<path class="st2" d="M379.97,220.8c-6.83-7.95-13.55-15.79-20.66-24.07C358.81,207.02,371.83,221.84,379.97,220.8z"/>
	<path class="st2" d="M369.02,182.38c2.56,2.96,4.81,6.18,7.44,9.07c4.53,4.98,9.25,9.8,13.8,14.6c-0.16-1.51-0.24-3.17-0.55-4.79
		c-0.2-1.05-0.52-2.21-1.16-3.02c-2.82-3.54-5.76-6.99-8.69-10.45c-3.04-3.59-6.11-7.16-9.37-10.99
		C369.66,178.93,366.87,179.89,369.02,182.38z"/>
	<path class="st2" d="M382.72,158.09c-2.59,3.78-2.62,4.33,0.39,7.69c3.91,4.36,7.92,8.63,11.85,12.97
		c3.49,3.86,3.47,3.89,7.17,0.04c0.06-0.06,0.11-0.13,0.15-0.19c-6.18-7.22-12.36-14.44-18.72-21.88
		C383.23,157.24,383,157.68,382.72,158.09z"/>
	<path class="st2" d="M418.4,125.05c-2.2-2.23-4.47-2.05-6.79,0.76c8.72,8.95,17.46,17.91,26.33,27c1.3-1.71,2.52-3.31,3.83-5.03
		c-0.95-0.54-1.7-0.78-2.19-1.28C432.49,139.36,425.44,132.21,418.4,125.05z"/>
	<path class="st2" d="M419.06,122.55c4.78,4.57,9.18,8.77,13.57,12.99c2.48,2.39,4.88,4.89,7.43,7.2c0.78,0.7,2.24,1.57,2.88,1.28
		c0.78-0.37,1.03-1.88,1.7-3.29c-7.07-6.48-13.96-12.8-21.08-19.34C422.74,121.6,421.35,121.96,419.06,122.55z"/>
	<path class="st1" d="M92.95,29.51c-5.35-4.96-11.85-7.05-19.19-6.18c-6.69,0.8-13.38,1.61-20.07,2.42
		c-5.97,0.72-11.29-1.65-15.81-4.8c-4.62-3.22-6.74-8.4-5.34-14.43c-4.1,1.58-6.4,4.67-6.38,8.77c0.03,6.84,2.96,12.14,8.88,15.7
		c1.33,0.8,2.17,1.41,1.04,3.34c-1.54,2.62-2.62,5.56-3.51,8.48c-0.53,1.72-0.65,3.72-0.38,5.51c0.98,6.38,4.75,10.92,10.36,13.73
		c3.93,1.97,8.2,3.09,12.73,1.86c4.23-1.16,6.8-3.86,8.38-7.93c1.35-3.47,1.55-6.76-0.15-10.03c-1.55-2.99-4.96-4.76-7.52-4.05
		c-1.9,0.53-3.78,1.17-6.1,1.9c0.9-1.92,1.58-3.46,2.34-4.95c1.99-3.94,5.12-6.15,9.62-6.33c8.03-0.33,13.88,3.28,18.22,9.82
		c3.02,4.54,4.25,9.62,5.29,14.9c1.25,6.32,0.88,12.5-0.75,18.58c-1.2,4.5-2.93,8.87-4.7,13.19c-0.56,1.37-1.97,2.39-3.22,3.83
		c-0.6-0.97-0.83-1.31-1.04-1.67c-1.85-3.11-3.44-6.41-5.65-9.23c-1.13-1.45-3.28-2.32-5.14-2.92c-4.02-1.3-8.01-0.12-12.02,0.59
		c-5.03,0.89-10.06,1.3-13.24-4.08c-0.25-0.42-0.81-0.66-1.5-1.21c-0.6,1.35-1.86,2.83-1.53,3.72c0.85,2.31,2.41,4.37,3.77,6.67
		c-2.9,0.9-6.12,1.86-9.56,0.99c-7.23-1.84-11.21-6.8-12.92-13.97c-3.91,4.26-4.23,12.02-0.9,15.94c2.92,3.45,6.35,6.15,10.68,7.66
		c0.52,0.18,0.86,0.86,1.28,1.32c-0.46,0.27-0.94,0.51-1.39,0.8c-1.39,0.88-3.08,1.51-4.09,2.71c-3.34,3.96-7,7.24-12.48,7.56
		c-2,0.12-4,0.02-5.89,0.02c1,0.84,2.29,1.49,2.92,2.53c2.37,3.93,5.79,6.07,10.27,6.59c3.67,0.42,6.94-0.83,9.81-2.96
		c1.6-1.19,2.89-2.81,4.31-4.24c0.22,0.14,0.44,0.28,0.66,0.42c-0.26,0.72-0.45,1.48-0.8,2.15c-3.47,6.67-4.35,13.16,0.38,19.78
		c3.19,4.47,7.63,6.38,12.62,5.92c4.37-0.4,7.11-4.04,9.19-7.77c0.56-1,0.78-2.27,0.84-3.43c0.2-3.58-2.51-6.31-5.97-7.2
		c-3.05-0.78-4.52,0.65-6.21,2.66c-0.58,0.7-2.09,0.92-3.12,0.8c-0.39-0.04-0.83-1.63-0.85-2.53c-0.05-1.61,0.15-3.22,0.33-4.83
		c0.15-1.31,0.14-2.74,0.67-3.89c2.56-5.49,9.33-8.69,15.23-7.19c1.66,0.42,3.24,1.28,4.75,2.13c3.88,2.19,6.56,5.97,7,9.92
		c0.63,5.69,0.28,11.72-0.95,17.31c-1.33,6.02-3.99,11.79-6.4,17.53c-3.18,7.6-6.89,14.99-9.98,22.63c-2.19,5.4-3.95,11-5.51,16.63
		c-2.72,9.83-3.82,19.86-2.18,30c0.93,5.79,2.4,11.49,3.52,17.25c1.22,6.28,4.05,11.94,6.93,17.51c4.01,7.75,10.01,14.07,16.2,20.08
		c3.6,3.5,7.8,6.46,12.01,9.25c3.88,2.57,7.94,5.07,12.25,6.76c7.74,3.03,15.66,5.71,23.65,8.03c7.83,2.27,15.8,4.09,23.78,5.74
		c4.6,0.95,9.35,1.45,14.05,1.63c5.92,0.22,11.85-0.02,17.78-0.2c4.7-0.14,9.39-0.39,14.07-0.74c5.41-0.41,10.9-0.56,16.2-1.61
		c6.14-1.2,12.2-3.01,18.13-5.01c4.99-1.68,9.76-4,14.61-6.09c4.88-2.11,9.79-4.14,14.56-6.49c4.34-2.14,8.5-4.65,12.73-6.99
		c4.18-2.31,8.54-4.32,12.48-6.98c4.28-2.89,8.16-6.36,12.2-9.6c4.74-3.8,9.59-7.46,14.14-11.47c4.63-4.09,9.09-8.39,13.35-12.87
		c7.16-7.52,14.21-15.14,21.08-22.92c4.05-4.58,7.77-9.47,11.47-14.35c4.01-5.29,7.97-10.62,11.67-16.12
		c3.36-4.99,6.29-10.27,9.53-15.35c3.69-5.79,7.82-11.32,11.21-17.27c2.95-5.18,5.52-10.55,9.37-15.17
		c5.06-6.06,9.91-12.32,17.26-15.92c6.16-3.02,12.15-6.41,19.22-6.96c6.41-0.49,12.35,0.41,16.88,5.44c1.62,1.79,2.84,3.95,4.2,5.97
		c0.66,0.98,1.2,2.04,1.96,3.35c0.3-1.47,0.51-2.46,0.71-3.46c0.94-4.62-1.6-10.89-5.48-12.74c-4.32-2.07-8.92-3.61-13.76-3.44
		c-5.17,0.19-10.34,0.75-15.47,1.47c-9.39,1.32-17.73,5.24-23.74,12.56c-5.25,6.4-9.8,13.42-14.13,20.5
		c-8.26,13.47-16.03,27.23-24.23,40.74c-3.25,5.36-6.87,10.55-10.72,15.5c-6.26,8.07-12.7,16.03-19.36,23.77
		c-4.25,4.93-8.94,9.5-13.63,14.02c-3.27,3.15-6.86,5.98-10.37,8.87c-6,4.96-11.94,10.02-18.12,14.76
		c-5.08,3.89-10.39,7.5-15.76,10.99c-4.47,2.91-9.11,5.6-13.79,8.17c-3.18,1.75-6.54,3.19-9.86,4.67
		c-4.23,1.88-8.36,4.13-12.78,5.35c-7.92,2.19-16.03,3.74-24.05,5.55c-2.28,0.51-4.55,1.11-6.85,1.48
		c-3.39,0.55-6.81,0.9-10.21,1.41c-3.17,0.48-6.3,1.33-9.48,1.54c-3.44,0.23-6.91-0.04-10.37-0.16c-7.6-0.26-15.21-0.35-22.79-0.9
		c-5.42-0.39-10.87-1.08-16.17-2.27c-6.13-1.38-12.28-3.02-18.11-5.33c-8.1-3.21-16.79-5.19-23.87-10.72
		c-3.77-2.94-7.82-5.56-11.36-8.75c-3.7-3.34-6.74-7.41-10.43-10.76c-4.48-4.06-7.54-9.05-9.71-14.48
		c-3.04-7.58-6.35-15.14-7.13-23.43c-0.5-5.29-1.48-10.57-1.52-15.87c-0.05-5.91,0.23-11.88,2.29-17.57
		c0.39-1.07,0.58-2.21,0.86-3.32c0.61,0.4,0.66,0.7,0.61,0.98c-0.55,3.14-1.59,6.28-1.58,9.42c0.01,6.57,0.27,13.17,0.97,19.71
		c0.59,5.5,1.46,11.06,3.09,16.33c1.91,6.17,4.25,12.35,7.4,17.96c2.55,4.54,6.4,8.42,10.02,12.28c3.63,3.88,7.38,7.78,11.63,10.94
		c4.53,3.36,9.61,6.03,14.6,8.7c7.57,4.05,15.56,7.15,23.86,9.33c4.64,1.21,9.38,2.13,14.12,2.79c7.41,1.03,14.87,1.77,22.31,2.55
		c1.76,0.18,3.56-0.05,5.33,0.03c3.37,0.16,6.76,0.8,10.09,0.55c5.05-0.38,10.06-1.39,15.09-2.06c3.28-0.43,6.62-0.49,9.85-1.14
		c4.71-0.94,9.34-2.32,14.02-3.42c5.52-1.29,11.26-1.94,16.56-3.82c7.02-2.49,13.9-5.56,20.5-9.02c6.52-3.42,12.62-7.65,18.91-11.5
		c2.66-1.63,5.46-3.04,8.01-4.82c2.37-1.65,4.51-3.64,6.7-5.52c5.4-4.63,10.96-9.1,16.13-13.98c8.74-8.25,17.29-16.71,25.78-25.21
		c3.21-3.22,6.1-6.78,9.05-10.25c2.05-2.41,3.95-4.95,5.93-7.43c1.74-2.18,3.62-4.26,5.19-6.55c2.63-3.84,5.12-7.78,7.59-11.73
		c3.19-5.13,6.41-10.24,9.42-15.48c3.41-5.94,6.55-12.04,9.88-18.02c1.71-3.08,3.57-6.07,5.41-9.08c1.88-3.07,3.56-6.32,5.79-9.11
		c3.12-3.89,6.65-7.46,10.04-11.13c3.19-3.45,7.04-6.08,11.42-7.62c5.25-1.85,10.66-3.26,16.05-4.68
		c5.24-1.39,10.55-1.43,15.85-0.17c3.85,0.91,7.7,1.86,11.69,2.82c-0.41-2.93-2.42-5.18-4.85-6.25c-5.17-2.29-10.78-3.43-16.46-2.54
		c-5.06,0.79-10.22,1.64-14.98,3.43c-5.43,2.04-10.84,4.61-15.56,7.94c-4.91,3.47-9.48,7.58-12.73,12.95
		c-2.79,4.61-6.19,8.84-9.13,13.37c-2.67,4.11-5.06,8.4-7.6,12.59c-3.39,5.6-6.74,11.24-10.24,16.78
		c-3.81,6.02-7.53,12.14-11.75,17.86c-5.43,7.36-11.1,14.57-17.08,21.48c-6.23,7.2-12.86,14.07-19.49,20.92
		c-3.02,3.11-6.5,5.78-9.7,8.72c-2.16,1.99-4.02,4.36-6.34,6.13c-6.82,5.22-13.86,10.15-20.69,15.35
		c-6.7,5.09-14.03,9.05-21.51,12.81c-3.38,1.7-6.8,3.32-10.12,5.13c-7.15,3.9-14.69,6.83-22.49,9.09
		c-4.35,1.26-8.75,2.37-13.19,3.28c-5.36,1.1-10.75,2.23-16.19,2.78c-5.31,0.54-10.69,0.41-16.05,0.49
		c-5.55,0.09-11.09,0.13-16.64,0.11c-3.84-0.01-7.72,0.1-11.53-0.32c-4.85-0.54-9.69-1.4-14.46-2.45
		c-4.75-1.04-9.66-1.94-14.06-3.89c-6.66-2.94-12.97-6.67-19.38-10.16c-9.12-4.98-17.08-11.67-23.85-19.32
		c-4.93-5.58-8.54-12.53-11.83-19.31c-4.79-9.88-5.79-20.61-4.9-31.5c0.3-3.64,0.7-7.26,1.09-10.89c0.27-2.56,0.4-5.16,0.94-7.67
		c1.04-4.77,2.08-9.51,3.82-14.14c3.7-9.8,6.74-19.84,10.44-29.64c2.28-6.05,5.27-11.84,7.94-17.75c0.21,0.08,0.41,0.16,0.62,0.23
		c-0.2,0.78-0.38,1.56-0.6,2.33c-0.63,2.17-1.41,4.3-1.88,6.49c-0.73,3.39-1.18,6.84-1.9,10.24c-1.62,7.67-3.54,15.27-3.39,23.22
		c0.07,3.87-0.43,7.75-0.45,11.63c-0.02,3.76-0.03,7.57,0.48,11.28c0.49,3.57,1.31,7.19,2.63,10.54c1.62,4.12,3.43,8.33,6.04,11.84
		c3.03,4.07,6.77,7.74,10.69,11c3.12,2.6,6.84,4.62,10.53,6.38c3.41,1.62,7.16,2.52,10.73,3.81c8.04,2.91,16.24,5.49,24.75,6.08
		c8.21,0.58,16.51,0.44,24.73-0.05c9.71-0.58,19.4-1.65,29.04-2.9c10.07-1.3,19.62-4.75,28.88-8.69
		c10.07-4.28,19.96-9.1,29.58-14.32c7.01-3.79,13.35-8.79,20.2-12.9c7.03-4.22,13.15-9.53,19.2-14.96
		c4.21-3.78,8.44-7.55,12.5-11.49c3.4-3.29,6.7-6.7,9.8-10.28c2.58-2.97,4.87-6.2,7.16-9.4c1.84-2.57,3.52-5.26,5.21-7.93
		c1.1-1.74,1.96-3.65,3.14-5.33c3.37-4.81,6.76-9.61,10.32-14.28c4.56-5.99,9.25-11.87,13.95-17.75c1-1.25,2.28-2.26,3.42-3.39
		c2.53-2.51,4.97-5.11,7.59-7.52c6.77-6.24,14.61-10.95,22.5-15.59c6.82-4.02,13.98-7.17,21.84-8.49
		c5.59-0.93,11.19-1.79,16.22-2.59c-5.15-2.25-11.19-1-17.07-0.35c-3.49,0.38-6.93,1.83-10.24,3.17
		c-7.14,2.88-14.22,5.91-21.27,9.02c-8.13,3.59-14.14,9.9-20.03,16.23c-5.27,5.66-10.03,11.79-15.16,17.58
		c-5.5,6.21-10.52,12.7-14.64,19.98c-2.97,5.24-7.26,9.7-10.41,14.86c-4.78,7.83-11.03,14.45-17.2,21.06
		c-4.35,4.66-9.76,8.34-14.8,12.33c-2.55,2.01-5.24,3.91-8.05,5.53c-5.71,3.3-11.55,6.37-17.32,9.55
		c-9.18,5.06-18.21,10.41-27.58,15.08c-5.61,2.79-11.72,4.62-17.67,6.67c-4.81,1.66-9.69,3.18-14.61,4.48
		c-4.18,1.11-8.45,1.94-12.72,2.67c-5.76,0.98-11.54,1.85-17.34,2.53c-4.56,0.54-9.16,0.79-13.75,1.01
		c-3.31,0.16-6.69,0.45-9.94-0.01c-7.03-0.99-14.02-2.34-21-3.7c-12.31-2.41-24.35-5.58-32.88-15.77
		c-3.53-4.21-6.85-8.65-9.78-13.29c-1.56-2.47-2.2-5.56-3.02-8.43c-0.87-3.02-1.88-6.09-2.07-9.18c-0.22-3.6,0.38-7.24,0.62-10.87
		c0.53,0.69,0.78,1.44,0.87,2.22c0.36,2.88,0.38,5.84,1.05,8.64c2.84,11.77,8.06,22.24,17.43,30.28c1.72,1.47,3.84,2.55,5.3,4.23
		c2.65,3.05,6.19,4.52,9.74,5.73c4.77,1.62,9.69,2.83,14.63,3.84c5.57,1.13,11.19,2.19,16.84,2.64c6.84,0.54,13.74,0.74,20.59,0.48
		c6.77-0.26,13.56-0.99,20.27-2.03c6.62-1.03,13.25-2.35,19.68-4.19c6.61-1.89,13.17-4.18,19.44-7c10.07-4.53,20.01-9.37,29.74-14.6
		c7.51-4.03,14.67-8.76,21.87-13.35c5.39-3.44,10.75-6.96,15.86-10.8c3.17-2.39,5.94-5.35,8.71-8.23c2.59-2.7,5.01-5.58,7.38-8.48
		c1.89-2.32,3.57-4.81,5.4-7.18c2.66-3.45,5.51-6.77,8.05-10.31c3.88-5.41,7.51-11,11.35-16.44c3.07-4.35,6.18-8.66,9.46-12.85
		c3.26-4.17,6.59-8.32,10.19-12.19c3.7-3.98,7.59-7.84,11.74-11.35c4.26-3.6,8.71-7.11,13.51-9.91c4.56-2.66,9.63-4.48,14.56-6.46
		c7.78-3.12,15.67-5.87,24.26-5.97c-0.7-0.33-1.46-0.74-2.2-0.71c-2.92,0.09-5.83,0.31-8.74,0.48c-8.91,0.5-16.84,3.82-24.46,8.23
		c-6.26,3.62-12.43,7.34-17.9,12.12c-1.78,1.55-3.86,2.77-5.56,4.39c-4.03,3.85-8.03,7.74-11.81,11.84
		c-4.06,4.41-8.08,8.91-11.7,13.68c-4.11,5.41-7.54,11.35-11.68,16.73c-6.35,8.24-12.91,16.32-19.69,24.21
		c-3.21,3.74-7.13,6.88-10.73,10.3c-3.21,3.05-6.18,6.4-9.65,9.11c-4.39,3.43-9.1,6.5-13.83,9.46c-6.05,3.79-12.18,7.48-18.44,10.91
		c-4.17,2.28-8.6,4.1-12.97,6.01c-4.29,1.87-8.64,3.6-12.96,5.39c-4.02,1.67-7.92,3.76-12.08,4.92c-9.65,2.7-19.4,5.04-29.14,7.38
		c-6.34,1.52-12.64,3.34-19.29,2.94c-3.74-0.22-7.55,0.15-11.24-0.35c-7.44-1-14.83-2.45-22.24-3.66
		c-5.99-0.98-11.96-2.21-17.16-5.39c-5.08-3.09-9.82-6.74-14.69-10.18c-5.2-3.68-8.71-8.86-11.63-14.29
		c-4.42-8.2-4.67-17.33-4.41-26.4c0.12-4.38,0.67-8.77,1.29-13.12c0.54-3.79,1.18-7.61,2.25-11.28c1.3-4.46,3.14-8.76,4.65-13.17
		c1.4-4.11,2.64-8.28,4-12.41c2.36-7.16,4.86-14.27,7.1-21.46c1.79-5.73,3.37-11.53,4.9-17.34c1.23-4.66,2.74-9.32,3.22-14.07
		c0.68-6.7-0.15-13.37-2.48-19.81C100.15,38.74,97.33,33.57,92.95,29.51z"/>
	<path class="st2" d="M436.6,121.92c-0.24-0.3-0.63-0.63-0.98-0.66c-2.55-0.26-5.11-0.46-7.66-0.67c-0.11,0.27-0.23,0.53-0.34,0.8
		c2.83,2.62,5.66,5.25,8.49,7.87c2.81,2.61,5.62,5.22,8.46,7.85c0.86-1.67,1.27-3.76-0.35-5.8
		C441.72,128.14,439.16,125.03,436.6,121.92z"/>
	<path class="st2" d="M422.96,141.23c-3.53-3.85-7.2-7.57-10.63-11.51c-2.62-3-2.8-3.14-5.91-0.74c-0.39,0.3-0.9,0.43-1.56,0.73
		c8.86,9.83,17.57,19.5,26.36,29.26c1.88-1.59,3.53-2.99,5.24-4.43c-1.16-0.65-2.21-0.96-2.86-1.65
		C429.99,149.04,426.51,145.1,422.96,141.23z"/>
	<path class="st2" d="M398.97,135.73c2.78,3.12,5.29,5.98,7.85,8.79c4.54,5,9.19,9.9,13.65,14.97c3.75,4.27,3.66,4.34,9.05,1.31
		c-8.83-9.8-17.49-19.4-26.28-29.15C401.61,133.21,400.33,134.43,398.97,135.73z"/>
	<path class="st2" d="M384.38,155.09c6.72,7.35,13.32,14.56,19.96,21.83c1.53-1.12,2.81-2.06,4.39-3.21
		c-6.95-8-13.81-15.9-20.83-23.99C386.63,151.66,385.53,153.33,384.38,155.09z"/>
	<path class="st2" d="M391.59,151.09c2.32,2.76,4.82,5.38,7.29,8.02c3.99,4.27,8.02,8.5,12.09,12.8c1.2-0.76,2.45-1.55,3.8-2.4
		c-7.71-8.72-15.17-17.16-22.62-25.59C388.81,147.41,388.72,147.67,391.59,151.09z"/>
	<path class="st2" d="M395.33,140.14c-2.13,1.25-1.81,2.8-0.59,4.24c2.3,2.7,4.79,5.23,7.2,7.83c2.14,2.31,4.27,4.62,6.43,6.91
		c2.96,3.14,5.93,6.26,8.78,9.26c1.98-1.17,3.78-2.24,5.7-3.37c-8.31-9.1-16.59-18.18-25.12-27.53
		C396.8,138.56,396.22,139.62,395.33,140.14z"/>
	<g>
		<path class="st3" d="M189.68,261.84c-0.51-2.42-1.04-4.54-1.39-6.68c-0.37-2.3,1.02-3.82,3.71-4.25c2.12-0.34,4.3,1.16,4.53,3.42
			c0.52,4.99,0.01,6.02-4.88,6.96C191.01,261.41,190.39,261.64,189.68,261.84z"/>
		<path class="st3" d="M174.38,256.89c1.51,1.69,4.03,2.8,3.82,5.85c-0.28,4.07-0.76,8.12-3.29,11.47
			c-1.17,1.55-2.76,2.91-4.43,3.92c-3.15,1.9-6.46,0.32-7.37-3.26c-1.31-5.15,2.29-14.06,6.94-16.72
			C171.28,257.45,172.84,257.32,174.38,256.89z"/>
		<path class="st3" d="M302.73,209.49c0,1.24,0.34,2.67-0.06,3.84c-1.31,3.83-6.09,4.38-8.46,0.76c-2.08-3.18-3.31-6.86-2.45-10.85
			c0.29-1.34,0.74-2.5,2.36-2.76c1.96-0.31,3.95-1.1,5.67,0.65C302.06,203.45,302.46,206.4,302.73,209.49z"/>
		<path class="st3" d="M226.6,254.37c-1.72,0.98-3.01,1.71-4.72,2.67c-0.43-3.1-0.82-5.91-1.21-8.72c0.23-0.1,0.46-0.2,0.69-0.3
			C223.03,250.05,224.71,252.08,226.6,254.37z"/>
		<path class="st3" d="M242.44,233.19c7.01-2.63,8.48-2.54,10.14,0.61c1.82,3.45,1.09,4.73-5.38,9.03
			C245.6,239.6,244.03,236.4,242.44,233.19z"/>
		<path class="st3" d="M265.65,230.71c-1.24,0.86-2.48,1.71-4.03,2.78c-0.38-3.05-0.66-5.28-1.04-8.26c1.59,2.2,2.83,3.91,4.07,5.62
			C264.99,230.8,265.32,230.75,265.65,230.71z"/>
		<path class="st3" d="M340.26,147.27c0.38-1.24,0.47-2.86,1.29-3.92c1.24-1.62,4.24-1.31,5.89,0.25c1.59,1.5,2.21,8.48,0.43,10.07
			c-2.12,1.89-4.96,1.7-6.16-0.97C341.01,151.12,340.78,149.32,340.26,147.27z"/>
		<path class="st3" d="M109.5,57.09c-1.75-15.2-11.78-30.32-19.82-33.85c-8.05-3.54-2.5-1.77-10.41-3.54c0,0,0,0-0.01,0
			c-2.52-0.01-5.05-0.02-7.58,0.02c-7.65,0.12-15.31,0.49-22.95,0.31c-2.38-0.06-5.06-1.13-7.03-2.54
			c-3.54-2.54-6.11-5.91-5.22-10.81c0.39-2.12,0.61-4.28,0.94-6.67c-1.11,0.4-2.28,1.04-2.45,0.84c-1.49-1.73-2.73-0.23-3.52,0.48
			c-3.02,2.71-5.92,5.57-8.64,8.57c-0.83,0.91-1.2,2.43-1.35,3.73c-0.59,5.18,0.76,10,3.63,14.26c1.29,1.92,3.05,3.65,4.92,5.03
			c1.53,1.13,0.94,1.76,0.21,2.84c-2.06,3.05-3.2,6.29-2.85,10.16c0.21,2.38,1.45,4.26,1.98,6.4c1.91,7.66,7.67,11.58,14.12,14.64
			c3.37,1.6,7.16,1.89,11.03,1.83c3.69-0.05,7-0.85,8.79-3.89c3.13-5.32,6.04-10.93,4.75-17.52c-0.8-4.08-6.38-9.19-10.64-9.14
			c3.22-2.91,7.01-2.86,10.17-1.2c9.03,4.73,13.95,12.52,14.43,22.71c0.21,4.45-0.45,8.97-1,13.43c-0.56,4.55-1.48,9.05-2.33,14.13
			c-1.7-2.71-2.99-4.8-4.32-6.86c-2.96-4.6-7.62-6.11-12.61-5.94c-4.09,0.14-8.15,1.28-12.19,2.14c-2.92,0.62-4.87-0.93-6.46-2.85
			c-1.18-1.43-2.26-3.29-0.27-5.49c-1.65-0.07-3.23-0.08-4.51,0.53c-5.83,2.77-7.61,7.41-5.36,13.77
			c-6.82-2.3-10.56-6.43-11.12-13.24c-0.07-0.84-0.72-1.62-1.08-2.37c-4.94,1-8.74,6.42-9.68,9.86c-2.37,8.68-0.48,16.17,7.65,21.29
			c-2.78,3.01-5.66,5.23-9.37,5.59c-2.43,0.24-5.2,1.37-7.32-1.39c-0.89-1.17-1.93-0.3-2.01,0.99c-0.18,2.93,0.71,5.59,2.77,7.7
			c2.27,2.33,4.64,4.58,7.06,6.76c3.11,2.79,6.15,5.85,11.01,4.46c1.45-0.41,2.97-0.59,4.47-0.87c0.88,8.19,1.38,8.35,3.79,12.54
			c4.31,7.49,10.89,8.38,18.53,6.93c7.8-1.48,11.7-9.52,10.38-17.16c-0.69-3.97-4.12-7.29-7.67-7.53c-2.29-0.16-4.59-0.03-7.32-0.03
			c0.45-1.1,0.56-2.32,1.22-2.83c1.97-1.53,4-3.27,6.3-4.02c3.02-0.98,6.14-1.11,8.75,1.84c2.29,2.58,3,5.33,3.33,8.66
			c0.65,6.61-1.57,12.61-3.38,18.66c-1.18,3.95-3.34,7.59-4.86,11.45c-2.55,6.48-5,13-7.36,19.55c-1.97,5.46-4.08,10.9-5.55,16.5
			c-1.88,7.18-3.6,14.45-4.62,21.79c-1.36,9.73,0.37,19.44,1.68,29.08c1.3,9.54,5.47,17.98,10.87,25.84
			c1.2,1.74,3.01,3.08,4.11,4.87c5.08,8.29,12.97,13.5,20.6,18.96c2.98,2.13,6.3,3.82,9.54,5.57c4.05,2.19,8.04,4.6,12.31,6.27
			c4.92,1.93,10.06,3.35,15.19,4.63c8.14,2.03,16.3,4.17,24.57,5.51c7.81,1.26,15.77,1.71,23.68,2.22
			c5.51,0.35,11.05,0.18,16.57,0.28c2.01,0.04,4.03,0.38,6.02,0.25c3.17-0.21,6.34-0.61,9.48-1.11c4.9-0.77,9.8-1.6,14.66-2.58
			c3.33-0.67,6.61-1.6,9.9-2.49c5.46-1.48,11.04-2.67,16.32-4.63c4.81-1.79,9.32-4.4,13.91-6.75c6.59-3.38,13.25-6.66,19.67-10.35
			c5.83-3.34,11.69-6.76,16.98-10.86c8.05-6.24,15.8-12.9,23.35-19.75c6.63-6.01,12.91-12.43,19.16-18.84
			c3.44-3.53,6.49-7.43,9.78-11.12c5.4-6.06,10.86-12.07,16.29-18.11c0.97-1.07,1.94-2.14,2.91-3.22c0.3,1.34,0.31,2.57,0.84,3.52
			c1.88,3.43,2.91,7.2,6.23,9.99c3.83,3.22,7.3,6.75,12.01,8.78c6.65,2.87,13.64,2.74,20.68,3.21c9.83,0.66,17.67-4.06,25.91-7.91
			c4.52-2.11,6.69-6.46,9.19-10.51c3.5-5.69,4.57-11.71,3.23-18.17c-0.14-0.69-0.95-1.42-1.64-1.73c-0.33-0.15-1.39,0.52-1.59,1.03
			c-1.82,4.61-6.01,6.51-9.87,8.73c-1.83,1.05-3.81,2.18-5.83,2.48c-4.96,0.73-9.74-0.72-14.45-2.11c-2.14-0.63-2.99-3.23-1.92-5.23
			c1-1.87,2.03-3.74,3.23-5.47c3.98-5.76,9.3-9.82,15.46-13.21c5.57-3.07,10.59-7.14,15.79-10.87c7.23-5.18,13-11.77,17.38-19.44
			c3.3-5.77,6.44-11.89,5.41-18.85c-0.76-5.12-1.86-10.28-3.63-15.13c-2.53-6.93-5.68-13.66-8.82-20.35
			c-1.97-4.19-4.03-8.43-6.75-12.13c-2.19-2.98-5.53-5.09-8.21-7.75c-2.87-2.85-6.07-5.32-9.98-6.09c-3.29-0.65-6.79-0.27-10.2-0.36
			c-5.74-0.15-11.41,0.18-16.76,2.58c-7.02,3.15-14.39,5.7-20.97,9.59c-5.79,3.42-10.94,8.08-15.95,12.66
			c-5.89,5.39-11.35,11.26-16.93,16.99c-2.84,2.92-5.73,5.82-8.26,9c-5.03,6.32-9.8,12.86-14.74,19.26
			c-3.26,4.22-6.6,8.38-9.95,12.53c-2.3,2.86-4.58,5.74-7.05,8.44c-1.81,1.98-3.94,3.67-5.89,5.53c-5.11,4.88-10.02,10-15.37,14.6
			c-4.59,3.94-9.53,7.54-14.6,10.85c-6.28,4.1-12.67,8.09-19.34,11.51c-6.33,3.25-12.99,5.87-19.64,8.44
			c-7.31,2.82-14.73,5.33-22.16,7.83c-3.28,1.11-6.66,1.97-10.04,2.74c-5.89,1.35-11.78,2.8-17.74,3.75
			c-6.44,1.02-12.99,2.22-19.46,2.07c-10.33-0.24-20.72-0.9-30.8-3.5c-4.41-1.14-8.81-2.68-12.88-4.71
			c-3.19-1.6-6.02-4.06-8.74-6.44c-3.11-2.72-6.39-5.45-8.77-8.76c-3.51-4.87-6.16-10.38-7.62-16.26
			c-1.71-6.89-2.54-13.84-0.7-20.96c1.36-5.28,1.78-10.81,3.16-16.09c1.81-6.96,4.14-13.79,6.26-20.68
			c0.81-2.64,1.68-5.26,2.52-7.89c0.15,0.04,0.3,0.07,0.45,0.11C99.33,102.06,111.25,72.29,109.5,57.09z M359.31,196.73
			c7.11,8.28,13.83,16.12,20.66,24.07C371.83,221.84,358.81,207.02,359.31,196.73z M379.89,217.11
			c-5.05-6.31-10.93-11.94-16.36-17.95c-1.16-1.28-1.81-3.01-2.83-4.43c-1.95-2.74,0.4-3.95,1.69-5.65
			c9.55,11.15,18.95,22.13,28.54,33.33C385.78,222.75,382.78,220.71,379.89,217.11z M394,222.32
			c-9.58-12.21-21.68-22.23-30.13-35.41c0.95-1.51,1.89-3.01,3.01-4.79c11.22,13.07,22.27,25.95,33.74,39.31
			C397.88,221.8,395.93,222.06,394,222.32z M385.2,182.89c1.6,1.88,3.21,3.76,4.97,5.48c1.48,1.45,2.34,2.78,0.98,4.82
			c-0.53,0.8-0.6,1.91-1.04,3.45c-6.42-7.24-12.54-14.14-18.77-21.17c1.24-1.75,2.29-3.24,3.46-4.91
			C378.33,174.75,381.74,178.84,385.2,182.89z M376.8,167.38c0.67-1.24,1.57-2.35,2.51-3.71c1.54,1.91,2.92,3.7,4.39,5.4
			c2.51,2.91,5.1,5.75,7.62,8.65c1.36,1.57,2.64,3.21,3.95,4.84c2.11,2.63-0.84,3.95-1.43,6.23c-3.94-3.97-7.76-7.59-11.3-11.47
			c-2.2-2.41-4.02-5.18-5.88-7.88C376.33,168.99,376.49,167.95,376.8,167.38z M379.87,187.8c2.92,3.46,5.87,6.9,8.69,10.45
			c0.64,0.81,0.96,1.97,1.16,3.02c0.31,1.62,0.39,3.28,0.55,4.79c-4.56-4.8-9.27-9.61-13.8-14.6c-2.63-2.89-4.89-6.11-7.44-9.07
			c-2.15-2.49,0.64-3.44,1.48-5.56C373.76,180.64,376.83,184.2,379.87,187.8z M400.45,217.43c1.9,0.58,4.1,1.25,6.06,1.85
			C404.27,221.37,403.1,221.05,400.45,217.43z M429.09,195.38c0.25,6.68-2.43,10.96-6.57,14.45c-1.98,1.66-4.14,3.13-6.34,4.48
			c-4.14,2.54-8.35,1.58-12.33-0.37c-3.29-1.61-5.64-4.3-7.07-7.73c-0.19-0.46-0.51-0.88-1.09-1.85
			C408.04,206.27,419.55,205.61,429.09,195.38z M402.12,178.79c-3.7,3.85-3.68,3.83-7.17-0.04c-3.93-4.34-7.94-8.61-11.85-12.97
			c-3.01-3.35-2.98-3.91-0.39-7.69c0.28-0.41,0.52-0.85,0.83-1.37c6.36,7.43,12.54,14.65,18.72,21.88
			C402.23,178.66,402.18,178.73,402.12,178.79z M404.34,176.91c-6.65-7.27-13.24-14.48-19.96-21.83c1.15-1.76,2.25-3.43,3.53-5.37
			c7.02,8.08,13.88,15.99,20.83,23.99C407.16,174.85,405.87,175.79,404.34,176.91z M410.96,171.91c-4.07-4.3-8.09-8.54-12.09-12.8
			c-2.47-2.64-4.97-5.26-7.29-8.02c-2.87-3.41-2.78-3.68,0.55-7.17c7.45,8.43,14.91,16.86,22.62,25.59
			C413.41,170.36,412.16,171.15,410.96,171.91z M417.15,168.38c-2.84-3-5.82-6.12-8.78-9.26c-2.16-2.29-4.29-4.61-6.43-6.91
			c-2.41-2.6-4.91-5.13-7.2-7.83c-1.22-1.44-1.54-2.99,0.59-4.24c0.89-0.52,1.46-1.58,2.4-2.66c8.53,9.35,16.81,18.42,25.12,27.53
			C420.94,166.15,419.13,167.22,417.15,168.38z M420.48,159.49c-4.46-5.07-9.11-9.97-13.65-14.97c-2.56-2.81-5.07-5.67-7.85-8.79
			c1.36-1.3,2.64-2.52,4.27-4.08c8.79,9.75,17.45,19.36,26.28,29.15C424.14,163.83,424.23,163.75,420.48,159.49z M431.21,158.97
			c-8.79-9.76-17.51-19.43-26.36-29.26c0.66-0.3,1.17-0.43,1.56-0.73c3.11-2.4,3.29-2.26,5.91,0.74c3.43,3.93,7.1,7.66,10.63,11.51
			c3.56,3.87,7.04,7.82,10.64,11.65c0.65,0.69,1.7,1,2.86,1.65C434.74,155.98,433.1,157.37,431.21,158.97z M437.94,152.8
			c-8.87-9.09-17.61-18.05-26.33-27c2.32-2.81,4.59-2.99,6.79-0.76c7.04,7.17,14.1,14.32,21.18,21.44c0.49,0.5,1.25,0.74,2.19,1.28
			C440.46,149.49,439.24,151.1,437.94,152.8z M442.94,144.01c-0.64,0.3-2.1-0.57-2.88-1.28c-2.55-2.31-4.94-4.81-7.43-7.2
			c-4.38-4.22-8.79-8.42-13.57-12.99c2.28-0.59,3.68-0.95,4.49-1.16c7.12,6.53,14.02,12.86,21.08,19.34
			C443.97,142.14,443.72,143.65,442.94,144.01z M444.57,137.11c-2.84-2.64-5.65-5.25-8.46-7.85c-2.83-2.62-5.66-5.25-8.49-7.87
			c0.11-0.27,0.23-0.53,0.34-0.8c2.56,0.21,5.11,0.41,7.66,0.67c0.35,0.04,0.73,0.37,0.98,0.66c2.56,3.11,5.12,6.23,7.62,9.39
			C445.84,133.35,445.43,135.44,444.57,137.11z M104.67,64.18c-0.48,4.75-2,9.41-3.22,14.07c-1.53,5.81-3.11,11.61-4.9,17.34
			c-2.25,7.19-4.74,14.3-7.1,21.46c-1.36,4.13-2.6,8.3-4,12.41c-1.5,4.41-3.35,8.7-4.65,13.17c-1.07,3.67-1.71,7.48-2.25,11.28
			c-0.62,4.35-1.16,8.73-1.29,13.12c-0.25,9.06-0.01,18.2,4.41,26.4c2.92,5.42,6.44,10.61,11.63,14.29
			c4.86,3.44,9.61,7.08,14.69,10.18c5.21,3.17,11.18,4.41,17.16,5.39c7.42,1.21,14.8,2.65,22.24,3.66c3.7,0.5,7.5,0.13,11.24,0.35
			c6.65,0.4,12.96-1.42,19.29-2.94c9.75-2.33,19.5-4.67,29.14-7.38c4.16-1.17,8.06-3.25,12.08-4.92c4.32-1.79,8.67-3.52,12.96-5.39
			c4.37-1.91,8.8-3.72,12.97-6.01c6.26-3.43,12.39-7.12,18.44-10.91c4.73-2.96,9.44-6.03,13.83-9.46c3.47-2.71,6.45-6.06,9.65-9.11
			c3.59-3.42,7.51-6.56,10.73-10.3c6.78-7.89,13.34-15.98,19.69-24.21c4.15-5.38,7.57-11.32,11.68-16.73
			c3.63-4.77,7.64-9.27,11.7-13.68c3.77-4.1,7.78-7.99,11.81-11.84c1.7-1.63,3.78-2.84,5.56-4.39c5.47-4.78,11.63-8.5,17.9-12.12
			c7.62-4.41,15.55-7.73,24.46-8.23c2.91-0.16,5.82-0.39,8.74-0.48c0.74-0.02,1.5,0.38,2.2,0.71c-8.6,0.1-16.49,2.85-24.26,5.97
			c-4.93,1.98-10,3.8-14.56,6.46c-4.8,2.8-9.24,6.31-13.51,9.91c-4.15,3.51-8.04,7.36-11.74,11.35c-3.6,3.87-6.93,8.02-10.19,12.19
			c-3.28,4.19-6.39,8.51-9.46,12.85c-3.84,5.44-7.47,11.03-11.35,16.44c-2.54,3.54-5.38,6.86-8.05,10.31
			c-1.83,2.37-3.51,4.87-5.4,7.18c-2.37,2.9-4.79,5.78-7.38,8.48c-2.77,2.88-5.54,5.85-8.71,8.23c-5.1,3.84-10.47,7.36-15.86,10.8
			c-7.2,4.59-14.36,9.31-21.87,13.35c-9.72,5.22-19.67,10.06-29.74,14.6c-6.27,2.82-12.83,5.11-19.44,7
			c-6.44,1.84-13.06,3.16-19.68,4.19c-6.7,1.04-13.49,1.77-20.27,2.03c-6.85,0.26-13.75,0.06-20.59-0.48
			c-5.65-0.45-11.28-1.51-16.84-2.64c-4.94-1-9.87-2.22-14.63-3.84c-3.55-1.21-7.09-2.67-9.74-5.73c-1.46-1.68-3.58-2.76-5.3-4.23
			c-9.37-8.03-14.59-18.5-17.43-30.28c-0.68-2.8-0.69-5.76-1.05-8.64c-0.1-0.77-0.35-1.53-0.87-2.22
			c-0.24,3.62-0.85,7.27-0.62,10.87c0.19,3.09,1.2,6.17,2.07,9.18c0.83,2.87,1.47,5.96,3.02,8.43c2.93,4.64,6.25,9.07,9.78,13.29
			c8.53,10.19,20.56,13.37,32.88,15.77c6.98,1.36,13.97,2.71,21,3.7c3.25,0.46,6.63,0.17,9.94,0.01c4.59-0.22,9.19-0.48,13.75-1.01
			c5.8-0.68,11.58-1.56,17.34-2.53c4.27-0.72,8.54-1.56,12.72-2.67c4.92-1.3,9.8-2.82,14.61-4.48c5.95-2.06,12.06-3.88,17.67-6.67
			c9.37-4.66,18.4-10.02,27.58-15.08c5.78-3.18,11.61-6.25,17.32-9.55c2.81-1.63,5.5-3.52,8.05-5.53
			c5.04-3.98,10.46-7.67,14.8-12.33c6.17-6.61,12.42-13.22,17.2-21.06c3.15-5.15,7.44-9.62,10.41-14.86
			c4.12-7.27,9.13-13.76,14.64-19.98c5.13-5.79,9.9-11.92,15.16-17.58c5.89-6.33,11.9-12.65,20.03-16.23
			c7.05-3.11,14.13-6.14,21.27-9.02c3.31-1.33,6.75-2.78,10.24-3.17c5.88-0.65,11.92-1.9,17.07,0.35
			c-5.03,0.8-10.63,1.66-16.22,2.59c-7.86,1.32-15.02,4.47-21.84,8.49c-7.89,4.64-15.73,9.36-22.5,15.59
			c-2.62,2.41-5.06,5.01-7.59,7.52c-1.14,1.13-2.42,2.15-3.42,3.39c-4.7,5.88-9.4,11.76-13.95,17.75
			c-3.55,4.67-6.94,9.47-10.32,14.28c-1.18,1.68-2.04,3.59-3.14,5.33c-1.69,2.68-3.37,5.36-5.21,7.93c-2.29,3.2-4.58,6.43-7.16,9.4
			c-3.1,3.57-6.4,6.98-9.8,10.28c-4.06,3.94-8.29,7.71-12.5,11.49c-6.05,5.43-12.17,10.74-19.2,14.96
			c-6.85,4.11-13.19,9.11-20.2,12.9c-9.63,5.21-19.51,10.03-29.58,14.32c-9.26,3.94-18.81,7.39-28.88,8.69
			c-9.65,1.25-19.34,2.32-29.04,2.9c-8.22,0.49-16.53,0.63-24.73,0.05c-8.51-0.6-16.71-3.18-24.75-6.08
			c-3.57-1.29-7.32-2.19-10.73-3.81c-3.7-1.76-7.41-3.78-10.53-6.38c-3.91-3.26-7.65-6.93-10.69-11c-2.61-3.51-4.42-7.73-6.04-11.84
			c-1.32-3.35-2.14-6.96-2.63-10.54c-0.51-3.71-0.5-7.52-0.48-11.28c0.02-3.88,0.52-7.76,0.45-11.63
			c-0.14-7.95,1.77-15.55,3.39-23.22c0.72-3.39,1.16-6.85,1.9-10.24c0.48-2.2,1.25-4.33,1.88-6.49c0.22-0.77,0.4-1.55,0.6-2.33
			c-0.21-0.08-0.41-0.16-0.62-0.23c-2.67,5.91-5.66,11.7-7.94,17.75c-3.7,9.8-6.74,19.84-10.44,29.64
			c-1.74,4.62-2.79,9.37-3.82,14.14c-0.54,2.51-0.67,5.11-0.94,7.67c-0.39,3.63-0.79,7.26-1.09,10.89
			c-0.89,10.89,0.11,21.62,4.9,31.5c3.29,6.78,6.9,13.73,11.83,19.31c6.77,7.65,14.73,14.34,23.85,19.32
			c6.41,3.49,12.72,7.23,19.38,10.16c4.41,1.94,9.31,2.84,14.06,3.89c4.77,1.05,9.6,1.9,14.46,2.45c3.81,0.43,7.68,0.31,11.53,0.32
			c5.55,0.02,11.09-0.02,16.64-0.11c5.35-0.09,10.74,0.05,16.05-0.49c5.43-0.55,10.82-1.68,16.19-2.78
			c4.43-0.91,8.84-2.02,13.19-3.28c7.8-2.26,15.34-5.19,22.49-9.09c3.32-1.81,6.74-3.43,10.12-5.13
			c7.47-3.76,14.81-7.72,21.51-12.81c6.84-5.19,13.88-10.13,20.69-15.35c2.32-1.77,4.17-4.14,6.34-6.13c3.2-2.94,6.68-5.61,9.7-8.72
			c6.63-6.84,13.26-13.71,19.49-20.92c5.98-6.92,11.65-14.12,17.08-21.48c4.23-5.73,7.94-11.84,11.75-17.86
			c3.5-5.54,6.85-11.17,10.24-16.78c2.54-4.19,4.93-8.48,7.6-12.59c2.94-4.53,6.34-8.76,9.13-13.37c3.25-5.37,7.82-9.48,12.73-12.95
			c4.72-3.33,10.13-5.9,15.56-7.94c4.75-1.79,9.92-2.64,14.98-3.43c5.67-0.89,11.28,0.26,16.46,2.54c2.43,1.07,4.44,3.32,4.85,6.25
			c-3.99-0.96-7.84-1.91-11.69-2.82c-5.29-1.25-10.61-1.21-15.85,0.17c-5.39,1.42-10.8,2.84-16.05,4.68
			c-4.38,1.54-8.23,4.17-11.42,7.62c-3.39,3.67-6.92,7.23-10.04,11.13c-2.23,2.79-3.91,6.04-5.79,9.11c-1.84,3-3.69,6-5.41,9.08
			c-3.33,5.99-6.47,12.08-9.88,18.02c-3,5.24-6.22,10.36-9.42,15.48c-2.46,3.95-4.95,7.9-7.59,11.73c-1.57,2.29-3.45,4.37-5.19,6.55
			c-1.97,2.48-3.88,5.02-5.93,7.43c-2.95,3.47-5.83,7.03-9.05,10.25c-8.49,8.51-17.04,16.96-25.78,25.21
			c-5.17,4.88-10.73,9.35-16.13,13.98c-2.2,1.89-4.34,3.87-6.7,5.52c-2.55,1.78-5.35,3.2-8.01,4.82c-6.3,3.85-12.39,8.08-18.91,11.5
			c-6.6,3.46-13.48,6.53-20.5,9.02c-5.31,1.88-11.04,2.54-16.56,3.82c-4.68,1.09-9.31,2.47-14.02,3.42
			c-3.23,0.65-6.57,0.7-9.85,1.14c-5.04,0.67-10.04,1.68-15.09,2.06c-3.33,0.25-6.72-0.39-10.09-0.55
			c-1.77-0.09-3.57,0.15-5.33-0.03c-7.44-0.78-14.9-1.51-22.31-2.55c-4.75-0.66-9.49-1.58-14.12-2.79
			c-8.3-2.17-16.29-5.27-23.86-9.33c-5-2.68-10.08-5.34-14.6-8.7c-4.25-3.16-8-7.06-11.63-10.94c-3.61-3.86-7.46-7.74-10.02-12.28
			c-3.15-5.61-5.49-11.79-7.4-17.96c-1.63-5.26-2.5-10.83-3.09-16.33c-0.7-6.53-0.96-13.13-0.97-19.71c0-3.14,1.03-6.28,1.58-9.42
			c0.05-0.28,0.01-0.58-0.61-0.98c-0.28,1.11-0.47,2.25-0.86,3.32c-2.07,5.69-2.34,11.67-2.29,17.57
			c0.04,5.29,1.02,10.57,1.52,15.87c0.79,8.3,4.09,15.85,7.13,23.43c2.18,5.43,5.23,10.41,9.71,14.48
			c3.69,3.35,6.73,7.42,10.43,10.76c3.54,3.19,7.6,5.8,11.36,8.75c7.08,5.53,15.77,7.5,23.87,10.72c5.83,2.31,11.98,3.95,18.11,5.33
			c5.3,1.19,10.75,1.88,16.17,2.27c7.58,0.55,15.19,0.64,22.79,0.9c3.46,0.12,6.93,0.39,10.37,0.16c3.18-0.22,6.31-1.06,9.48-1.54
			c3.4-0.52,6.82-0.86,10.21-1.41c2.3-0.38,4.57-0.97,6.85-1.48c8.03-1.81,16.13-3.36,24.05-5.55c4.42-1.22,8.55-3.48,12.78-5.35
			c3.33-1.48,6.68-2.92,9.86-4.67c4.68-2.57,9.32-5.26,13.79-8.17c5.36-3.5,10.68-7.1,15.76-10.99c6.18-4.73,12.12-9.79,18.12-14.76
			c3.51-2.9,7.1-5.73,10.37-8.87c4.7-4.52,9.39-9.09,13.63-14.02c6.67-7.74,13.1-15.7,19.36-23.77c3.85-4.96,7.47-10.14,10.72-15.5
			c8.2-13.51,15.97-27.27,24.23-40.74c4.33-7.07,8.89-14.1,14.13-20.5c6.01-7.33,14.35-11.24,23.74-12.56
			c5.13-0.72,10.3-1.28,15.47-1.47c4.83-0.18,9.43,1.37,13.76,3.44c3.87,1.85,6.42,8.13,5.48,12.74c-0.2,1-0.41,2-0.71,3.46
			c-0.76-1.31-1.3-2.37-1.96-3.35c-1.35-2.02-2.58-4.18-4.2-5.97c-4.54-5.03-10.47-5.93-16.88-5.44
			c-7.07,0.55-13.06,3.93-19.22,6.96c-7.35,3.61-12.2,9.86-17.26,15.92c-3.86,4.62-6.42,10-9.37,15.17
			c-3.4,5.95-7.52,11.48-11.21,17.27c-3.24,5.08-6.17,10.36-9.53,15.35c-3.71,5.5-7.67,10.83-11.67,16.12
			c-3.7,4.88-7.41,9.77-11.47,14.35c-6.87,7.78-13.92,15.4-21.08,22.92c-4.26,4.47-8.72,8.78-13.35,12.87
			c-4.54,4.02-9.4,7.68-14.14,11.47c-4.04,3.24-7.92,6.71-12.2,9.6c-3.94,2.66-8.31,4.68-12.48,6.98
			c-4.24,2.34-8.39,4.85-12.73,6.99c-4.76,2.34-9.68,4.38-14.56,6.49c-4.84,2.1-9.62,4.41-14.61,6.09c-5.94,2-11.99,3.81-18.13,5.01
			c-5.3,1.04-10.78,1.2-16.2,1.61c-4.68,0.35-9.38,0.6-14.07,0.74c-5.92,0.17-11.86,0.42-17.78,0.2c-4.7-0.18-9.45-0.68-14.05-1.63
			c-7.98-1.65-15.95-3.47-23.78-5.74c-7.99-2.32-15.9-4.99-23.65-8.03c-4.31-1.69-8.37-4.18-12.25-6.76
			c-4.2-2.79-8.4-5.75-12.01-9.25c-6.19-6.01-12.19-12.33-16.2-20.08c-2.88-5.57-5.71-11.23-6.93-17.51
			c-1.12-5.76-2.58-11.46-3.52-17.25c-1.63-10.14-0.54-20.18,2.18-30c1.56-5.62,3.32-11.22,5.51-16.63
			c3.09-7.64,6.8-15.03,9.98-22.63c2.41-5.74,5.06-11.51,6.4-17.53c1.24-5.59,1.59-11.62,0.95-17.31c-0.44-3.95-3.12-7.73-7-9.92
			c-1.51-0.85-3.09-1.71-4.75-2.13c-5.91-1.49-12.67,1.71-15.23,7.19c-0.54,1.15-0.53,2.58-0.67,3.89c-0.18,1.6-0.38,3.22-0.33,4.83
			c0.03,0.9,0.46,2.48,0.85,2.53c1.02,0.12,2.53-0.1,3.12-0.8c1.69-2.01,3.16-3.44,6.21-2.66c3.46,0.88,6.16,3.62,5.97,7.2
			c-0.06,1.16-0.29,2.43-0.84,3.43c-2.08,3.73-4.82,7.37-9.19,7.77c-4.99,0.46-9.43-1.46-12.62-5.92
			c-4.73-6.62-3.85-13.11-0.38-19.78c0.35-0.67,0.54-1.43,0.8-2.15c-0.22-0.14-0.44-0.28-0.66-0.42c-1.43,1.43-2.71,3.05-4.31,4.24
			c-2.87,2.13-6.14,3.38-9.81,2.96c-4.48-0.51-7.9-2.65-10.27-6.59c-0.63-1.04-1.92-1.69-2.92-2.53c1.88,0,3.89,0.1,5.89-0.02
			c5.48-0.32,9.14-3.59,12.48-7.56c1.01-1.2,2.7-1.83,4.09-2.71c0.45-0.29,0.93-0.53,1.39-0.8c-0.42-0.45-0.77-1.14-1.28-1.32
			c-4.32-1.51-7.75-4.22-10.68-7.66c-3.33-3.92-3-11.68,0.9-15.94c1.71,7.16,5.69,12.13,12.92,13.97c3.44,0.88,6.66-0.08,9.56-0.99
			c-1.36-2.3-2.91-4.36-3.77-6.67c-0.33-0.89,0.93-2.37,1.53-3.72c0.69,0.55,1.25,0.79,1.5,1.21c3.18,5.38,8.22,4.97,13.24,4.08
			c4.01-0.71,8-1.89,12.02-0.59c1.86,0.6,4.01,1.48,5.14,2.92c2.21,2.82,3.8,6.13,5.65,9.23c0.21,0.35,0.43,0.7,1.04,1.67
			c1.24-1.43,2.66-2.46,3.22-3.83c1.76-4.32,3.49-8.69,4.7-13.19c1.63-6.08,2-12.26,0.75-18.58c-1.04-5.28-2.28-10.36-5.29-14.9
			c-4.34-6.53-10.19-10.15-18.22-9.82c-4.5,0.18-7.63,2.39-9.62,6.33c-0.76,1.5-1.44,3.03-2.34,4.95c2.33-0.73,4.2-1.37,6.1-1.9
			c2.56-0.71,5.97,1.06,7.52,4.05c1.7,3.28,1.5,6.57,0.15,10.03c-1.58,4.07-4.15,6.78-8.38,7.93c-4.53,1.24-8.8,0.11-12.73-1.86
			c-5.6-2.81-9.38-7.36-10.36-13.73c-0.27-1.79-0.15-3.79,0.38-5.51c0.89-2.92,1.97-5.86,3.51-8.48c1.13-1.93,0.29-2.54-1.04-3.34
			c-5.92-3.56-8.85-8.86-8.88-15.7c-0.02-4.1,2.28-7.19,6.38-8.77c-1.4,6.03,0.72,11.21,5.34,14.43c4.52,3.15,9.84,5.52,15.81,4.8
			c6.69-0.81,13.38-1.62,20.07-2.42c7.34-0.88,13.84,1.22,19.19,6.18c4.38,4.05,7.19,9.23,9.24,14.86
			C104.53,50.81,105.35,57.48,104.67,64.18z M356.83,127.29c0.19,0.82,0.72,1.57,0.88,2.4c0.27,1.42,0.35,2.87,0.51,4.31
			c-1.46,0.03-2.93,0.11-4.39,0.06c-1.05-0.04-2.1-0.27-3.7-0.48c3.51,3.27,6.69,6.23,9.78,9.1c-1.29,2.95-2.72,1.82-3.75,0.96
			c-2.66-2.24-5.16-4.65-7.72-7.01c-0.69-0.63-1.25-1.44-2.02-1.94c-1.45-0.95-1.56-2.39-0.78-3.44c0.61-0.82,2.03-1.32,3.14-1.41
			c1.85-0.15,3.74,0.13,5.98,0.25c-0.59-2.21-0.99-3.92-1.52-5.59c-0.54-1.71-0.16-3.23,1.34-3.97c0.84-0.41,2.37-0.29,3.17,0.23
			c3.73,2.47,7.33,5.16,10.96,7.79c1.36,0.99,1.52,2.49,0.46,3.48c-0.43,0.4-2.23-0.27-3.12-0.88c-2.93-1.98-5.74-4.16-9.25-6.74
			C356.8,125.92,356.69,126.64,356.83,127.29z M325.36,164.13c-0.25-2.28,0.41-4.78,1.15-7.01c0.91-2.74,3.36-2.91,5.83-2.53
			c2.27,0.35,3.3,1.77,3.32,4.34c-0.85-0.26-1.68-0.37-2.37-0.74c-2.14-1.12-3.61-0.33-4.28,2.04c-0.84,2.96,0.24,5.43,1.68,7.8
			c1.29,2.13,3.47,1.98,5.5,1.53c2.35-0.52,4.1-1.8,4.54-4.45c0.14-0.84,0.76-1.6,1.15-2.4c0.9,0.78,2.08,1.4,2.65,2.38
			c1.98,3.38-1.31,7.57-5.73,8.74C332.14,175.6,326.38,173.35,325.36,164.13z M331.99,186.85c-1.16,0.77-2.03,1.76-2.51,1.59
			c-0.77-0.27-1.54-1.22-1.77-2.03c-0.11-0.4,1.17-1.73,1.49-1.62C330.09,185.09,330.8,185.91,331.99,186.85z M343.3,158.36
			c-2.95-0.5-7.05-6.21-7.21-9.67c-0.02-0.51,0-1.03,0-1.54c0.02-5.22,3.32-8.11,8.81-7.69c5.26,0.41,9.01,3.54,9.3,8.7
			C354.57,154.62,350.05,159.5,343.3,158.36z M282.29,237.41c-2.43,0.97-3.71,0.54-4.64-1.38c-2.94-6.08-5.98-12.11-8.96-18.16
			c-0.72-1.47-1.35-2.96-0.04-4.47c5.9,3.2,11.73,6.36,17.56,9.52c0.13-0.11,0.27-0.21,0.4-0.32c-1.93-3.19-3.99-6.31-5.74-9.59
			c-1.04-1.97-3.17-3.59-2.52-6.25c0.09-0.38,0.38-0.71,0.77-1.42c0.82,0.87,1.63,1.48,2.12,2.3c3.64,6.07,7.25,12.16,10.79,18.28
			c0.37,0.63,0.58,2.01,0.25,2.26c-0.66,0.51-1.93,0.93-2.59,0.62c-4.79-2.27-9.48-4.74-14.21-7.14c-0.48-0.24-0.97-0.47-1.88-0.91
			C276.64,226.56,279.43,231.91,282.29,237.41z M262.98,244.9c0.17,2.02,0.38,4.03,0.57,6.08c-2.5,0.97-3.7-0.03-3.97-2.17
			c-0.45-3.55-0.78-7.12-1.05-10.69c-0.41-5.51-0.74-11.04-1.06-16.56c-0.03-0.6,0.07-1.5,0.45-1.77c0.4-0.28,1.43-0.21,1.82,0.13
			c2.55,2.18,5.2,4.3,7.46,6.77c3.26,3.57,6.3,7.36,9.24,11.21c0.62,0.81,0.8,2.41,0.46,3.4c-0.53,1.56-1.76,1.63-2.9,0.28
			c-2.11-2.51-4.25-5.01-6.54-7.69c-1.56,0.98-2.99,1.76-4.25,2.75c-0.46,0.37-0.73,1.26-0.71,1.9
			C262.58,240.66,262.79,242.78,262.98,244.9z M290.04,216.32c-0.64-1.83-1.69-3.52-2.32-5.35c-0.37-1.08-0.27-2.32-0.39-3.49
			c-0.19-0.06-0.38-0.12-0.57-0.18c0.71-2.45,0.92-5.2,2.21-7.28c3.63-5.86,11.66-5.18,15.21,0.74c2.16,3.6,3.51,7.35,4.26,11.41
			c0.52,2.82-2.91,8.05-6.03,9.36C297.19,223.73,292.13,222.26,290.04,216.32z M308.07,205.35c-0.3-0.78-0.26-1.69-0.36-2.55
			c0.76,0.1,1.54,0.11,2.27,0.32c0.71,0.21,1.4,0.96,2.02,0.88c1.35-0.19,2.91-0.45,3.92-1.26c1.74-1.39,1.11-3.35-0.04-4.79
			c-0.65-0.81-1.93-1.35-3.01-1.51c-1.66-0.25-3.41,0.1-5.07-0.12c-4.01-0.53-6.37-2.87-7.38-6.57c-0.51-1.85,3.09-6.03,4.91-7.06
			c1.18-0.67,5.33,0.78,6.17,2.01c0.9,1.32,0.2,3.85-1.66,5.07c-0.23-0.68-0.29-1.22-0.57-1.57c-0.62-0.78-1.35-2.05-2.03-2.04
			c-0.99,0.01-2.28,0.75-2.87,1.58c-0.4,0.57-0.17,2.14,0.37,2.71c0.78,0.83,2.03,1.43,3.17,1.63c2.38,0.42,4.84,0.37,7.22,0.79
			c1.51,0.26,3.4,0.61,4.29,1.64c1.94,2.24,2.73,5.13,1.8,8.1c-1.04,3.32-7.95,7.02-11.78,4.16
			C308.9,206.35,308.29,205.9,308.07,205.35z M250.33,249.62c0.71,1.8,1.58,3.57,2.04,5.43c0.19,0.76-0.52,1.74-0.81,2.61
			c-0.81-0.47-1.99-0.75-2.36-1.45c-1.99-3.75-3.77-7.6-5.64-11.41c-1.72-3.5-3.53-6.95-5.12-10.51c-0.34-0.76-0.29-2.31,0.22-2.73
			c3.03-2.52,6.36-4.62,9.63-5.41c3.68-0.05,6.41,1.89,7.33,5.36c0.59,2.21,0.42,4.63,0.58,6.95c0.22,3.38-2.3,5.16-4.56,6.59
			C249.43,246.43,249.6,247.77,250.33,249.62z M220.87,272.02c-0.53,0.41-1.44,0.84-1.92,0.64c-0.45-0.18-0.66-1.17-0.79-1.84
			c-0.13-0.66-0.03-1.37-0.03-2.05c0.06,0,0.12,0,0.18,0c-0.18-8.29-0.38-16.57-0.51-24.86c-0.01-0.9,0.04-2.02,0.55-2.67
			c1.13-1.45,2.43-0.92,3.41,0.33c3.25,4.15,6.52,8.3,9.66,12.53c1.95,2.64,3.76,5.4,5.46,8.21c0.37,0.61-0.02,1.67-0.06,2.53
			c-0.89-0.07-2.12,0.21-2.59-0.27c-1.6-1.61-2.93-3.49-4.35-5.27c-0.85-1.07-1.72-1.4-3.01-0.54c-1.32,0.88-3.36,1.17-4.1,2.34
			c-0.84,1.33-0.73,3.34-0.75,5.06C221.98,268.21,222.96,270.43,220.87,272.02z M190.75,278.43c0.11,2.02-0.75,3.26-2.9,3.37
			c-2.43,0.13-2.06-1.66-2.18-3.15c-0.63-8.03-1.21-16.07-1.95-24.09c-0.3-3.21,2.23-6.64,5.78-7.17c2.09-0.32,4.21-0.51,6.32-0.63
			c2.38-0.14,4.35,1.49,4.87,3.81c0.98,4.35,0.24,8.25-3.01,11.48c-1.74,1.73-1.63,3.14,0.32,4.76c2.6,2.16,4.93,4.65,7.46,6.89
			c1.79,1.59,1.54,3.01-0.1,4.63c-4.31-2.02-7.51-5.41-10.92-8.53c-1.18-1.08-2.5-2-3.76-3c-0.14,1.6-0.41,3.2-0.39,4.79
			C190.33,273.86,190.62,276.14,190.75,278.43z M205.63,255.21c-0.42-1.45-0.66-3.01-1.35-4.33c-1.41-2.65-0.76-4.29,2.51-5.33
			c0.33,0.54,0.87,1.11,1.05,1.78c2.44,9.27,4.84,18.56,7.27,27.96c-3.53,0.23-4.33-1.2-4.91-3.79
			C208.98,266,207.2,260.63,205.63,255.21z M141.73,254.28c-0.65-3.1,0.09-3.8,3.06-3.46c4.31,0.5,8.65,0.7,12.96,1.21
			c1.23,0.15,2.49,0.76,3.53,1.46c0.42,0.28,0.51,1.5,0.28,2.11c-0.16,0.43-1.13,0.78-1.73,0.77c-2.06-0.04-4.12-0.26-6.41-0.43
			c-0.79,5.61-1.54,11.02-2.31,16.42c-0.33,2.34-0.4,4.78-1.17,6.97c-0.39,1.12-2.08,1.78-3.18,2.65c-0.3-0.08-0.6-0.15-0.91-0.23
			c-0.05-1.66-0.3-3.35-0.11-4.99c0.82-7.15,1.77-14.28,2.7-21.58C145.75,254.82,143.73,254.55,141.73,254.28z M164.24,257.95
			c1.45-2.4,3.35-4.27,6.43-4.91c4.51-0.94,7.99,0.69,9.26,5.16c0.89,3.15,1.46,6.39,1.82,8.03c-0.5,6-1.75,9.87-5,12.92
			c-0.6,0.56-0.99,1.36-1.42,2.09c-1.07,1.84-2.49,2.91-4.77,2.62c-1.85-0.23-4.09,0.36-5.51-0.5c-3.91-2.36-5.3-6.61-5.42-10.81
			C159.48,267.32,161.53,262.43,164.24,257.95z M126.91,270.16c0.12,0.48,0.24,1.02,0.53,1.4c2.28,2.98,3.25,3.66,5.66,0.76
			c0.76-0.91,1.47-1.85,2.27-2.87c2.68,0.93,2.95,2.03,1.13,4.09c-1.99,2.25-3.67,5.09-7.18,4.01c-4.42-1.36-7.63-6.11-6.88-10.08
			c0.64-3.38,1.37-6.89,2.9-9.92c1.94-3.84,5.02-6.87,9.8-7.17c1.92-0.12,3.41,0.73,3.95,2.6c0.7,2.41,1.92,4.89-0.04,7.37
			c-1.87,0.08-2.26-0.9-2.41-2.65c-0.11-1.25-0.9-2.71-1.87-3.49c-0.38-0.31-2.4,0.66-3.06,1.52
			C128.49,259.95,125.46,264.34,126.91,270.16z M101.85,257.4c4.14-4.19,8.03-8.25,12.11-12.11c0.51-0.48,2.03,0.1,3.74,0.25
			c-1.05,1.43-1.6,2.34-2.3,3.12c-4.68,5.16-9.39,10.3-14.11,15.44c-0.45,0.49-0.97,1.02-1.57,1.27c-0.95,0.41-1.99,0.6-2.99,0.88
			c-0.22-0.86-0.7-1.75-0.62-2.59c0.43-4.47,1.04-8.92,1.49-13.39c0.19-1.87,0.04-3.76,0.2-5.63c0.11-1.23,0.28-2.56,0.88-3.58
			c0.28-0.48,1.88-0.75,2.42-0.4c0.75,0.48,1.56,1.67,1.51,2.49c-0.29,4.38-0.86,8.74-1.26,13.11
			C101.3,256.69,101.72,257.14,101.85,257.4z M110.52,266.85c2.7-5.67,5.73-11.18,8.69-16.72c0.4-0.76,1.19-1.3,1.77-1.92
			c3.03,2.21,1.63,4.32,0.7,6.39c-2.21,4.92-4.43,9.83-6.7,14.72c-0.58,1.25-1.38,2.4-2.07,3.57c-0.33-0.1-0.51-0.11-0.65-0.21
			C109.09,270.47,108.85,270.35,110.52,266.85z"/>
	</g>
</g>
</svg>
